<svg width="1292" height="274" viewBox="0 0 1292 274" fill="none" xmlns="http://www.w3.org/2000/svg">
<path d="M15.7369 43.8241C11.0028 30.7823 20.6622 17 34.5367 17H1266C1277.05 17 1286 25.9543 1286 37V174C1286 185.046 1277.05 194 1266 194H84.2663C75.852 194 68.3375 188.733 65.4665 180.824L15.7369 43.8241Z" fill="white"/>
<path d="M180.899 77.64C181.913 77.8 182.833 78.2133 183.659 78.88C184.513 79.5467 185.179 80.3733 185.659 81.36C186.166 82.3467 186.419 83.4 186.419 84.52C186.419 85.9333 186.059 87.2133 185.339 88.36C184.619 89.48 183.566 90.3733 182.179 91.04C180.819 91.68 179.206 92 177.339 92H166.939V64.12H176.939C178.833 64.12 180.446 64.44 181.779 65.08C183.113 65.6933 184.113 66.5333 184.779 67.6C185.446 68.6667 185.779 69.8667 185.779 71.2C185.779 72.8533 185.326 74.2267 184.419 75.32C183.539 76.3867 182.366 77.16 180.899 77.64ZM170.579 76.16H176.699C178.406 76.16 179.726 75.76 180.659 74.96C181.593 74.16 182.059 73.0533 182.059 71.64C182.059 70.2267 181.593 69.12 180.659 68.32C179.726 67.52 178.379 67.12 176.619 67.12H170.579V76.16ZM177.019 89C178.833 89 180.246 88.5733 181.259 87.72C182.273 86.8667 182.779 85.68 182.779 84.16C182.779 82.6133 182.246 81.4 181.179 80.52C180.113 79.6133 178.686 79.16 176.899 79.16H170.579V89H177.019ZM191.351 66.52C190.657 66.52 190.071 66.28 189.591 65.8C189.111 65.32 188.871 64.7333 188.871 64.04C188.871 63.3467 189.111 62.76 189.591 62.28C190.071 61.8 190.657 61.56 191.351 61.56C192.017 61.56 192.577 61.8 193.031 62.28C193.511 62.76 193.751 63.3467 193.751 64.04C193.751 64.7333 193.511 65.32 193.031 65.8C192.577 66.28 192.017 66.52 191.351 66.52ZM193.111 70.08V92H189.471V70.08H193.111ZM200.954 73.64C201.594 72.3867 202.501 71.4133 203.674 70.72C204.874 70.0267 206.328 69.68 208.034 69.68V73.44H207.074C202.994 73.44 200.954 75.6533 200.954 80.08V92H197.314V70.08H200.954V73.64ZM219.276 69.72C221.17 69.72 222.823 70.1333 224.236 70.96C225.676 71.7867 226.743 72.8267 227.436 74.08V70.08H231.116V92.48C231.116 94.48 230.69 96.2533 229.836 97.8C228.983 99.3733 227.756 100.6 226.156 101.48C224.583 102.36 222.743 102.8 220.636 102.8C217.756 102.8 215.356 102.12 213.436 100.76C211.516 99.4 210.383 97.5467 210.036 95.2H213.636C214.036 96.5333 214.863 97.6 216.116 98.4C217.37 99.2267 218.876 99.64 220.636 99.64C222.636 99.64 224.263 99.0133 225.516 97.76C226.796 96.5067 227.436 94.7467 227.436 92.48V87.88C226.716 89.16 225.65 90.2267 224.236 91.08C222.823 91.9333 221.17 92.36 219.276 92.36C217.33 92.36 215.556 91.88 213.956 90.92C212.383 89.96 211.143 88.6133 210.236 86.88C209.33 85.1467 208.876 83.1733 208.876 80.96C208.876 78.72 209.33 76.76 210.236 75.08C211.143 73.3733 212.383 72.0533 213.956 71.12C215.556 70.1867 217.33 69.72 219.276 69.72ZM227.436 81C227.436 79.3467 227.103 77.9067 226.436 76.68C225.77 75.4533 224.863 74.52 223.716 73.88C222.596 73.2133 221.356 72.88 219.996 72.88C218.636 72.88 217.396 73.2 216.276 73.84C215.156 74.48 214.263 75.4133 213.596 76.64C212.93 77.8667 212.596 79.3067 212.596 80.96C212.596 82.64 212.93 84.1067 213.596 85.36C214.263 86.5867 215.156 87.5333 216.276 88.2C217.396 88.84 218.636 89.16 219.996 89.16C221.356 89.16 222.596 88.84 223.716 88.2C224.863 87.5333 225.77 86.5867 226.436 85.36C227.103 84.1067 227.436 82.6533 227.436 81ZM233.908 80.96C233.908 78.72 234.361 76.76 235.268 75.08C236.174 73.3733 237.414 72.0533 238.988 71.12C240.588 70.1867 242.361 69.72 244.308 69.72C246.228 69.72 247.894 70.1333 249.308 70.96C250.721 71.7867 251.774 72.8267 252.468 74.08V70.08H256.148V92H252.468V87.92C251.748 89.2 250.668 90.2667 249.228 91.12C247.814 91.9467 246.161 92.36 244.268 92.36C242.321 92.36 240.561 91.88 238.988 90.92C237.414 89.96 236.174 88.6133 235.268 86.88C234.361 85.1467 233.908 83.1733 233.908 80.96ZM252.468 81C252.468 79.3467 252.134 77.9067 251.468 76.68C250.801 75.4533 249.894 74.52 248.748 73.88C247.628 73.2133 246.388 72.88 245.028 72.88C243.668 72.88 242.428 73.2 241.308 73.84C240.188 74.48 239.294 75.4133 238.628 76.64C237.961 77.8667 237.628 79.3067 237.628 80.96C237.628 82.64 237.961 84.1067 238.628 85.36C239.294 86.5867 240.188 87.5333 241.308 88.2C242.428 88.84 243.668 89.16 245.028 89.16C246.388 89.16 247.628 88.84 248.748 88.2C249.894 87.5333 250.801 86.5867 251.468 85.36C252.134 84.1067 252.468 82.6533 252.468 81ZM263.939 62.4V92H260.299V62.4H263.939ZM270.023 66.52C269.329 66.52 268.743 66.28 268.263 65.8C267.783 65.32 267.543 64.7333 267.543 64.04C267.543 63.3467 267.783 62.76 268.263 62.28C268.743 61.8 269.329 61.56 270.023 61.56C270.689 61.56 271.249 61.8 271.703 62.28C272.183 62.76 272.423 63.3467 272.423 64.04C272.423 64.7333 272.183 65.32 271.703 65.8C271.249 66.28 270.689 66.52 270.023 66.52ZM271.783 70.08V92H268.143V70.08H271.783ZM288.226 92L279.626 82.32V92H275.986V62.4H279.626V79.8L288.066 70.08H293.146L282.826 81L293.186 92H288.226ZM293.212 80.96C293.212 78.72 293.666 76.76 294.572 75.08C295.479 73.3733 296.719 72.0533 298.292 71.12C299.892 70.1867 301.679 69.72 303.652 69.72C305.359 69.72 306.946 70.12 308.412 70.92C309.879 71.6933 310.999 72.72 311.772 74V62.4H315.452V92H311.772V87.88C311.052 89.1867 309.986 90.2667 308.572 91.12C307.159 91.9467 305.506 92.36 303.612 92.36C301.666 92.36 299.892 91.88 298.292 90.92C296.719 89.96 295.479 88.6133 294.572 86.88C293.666 85.1467 293.212 83.1733 293.212 80.96ZM311.772 81C311.772 79.3467 311.439 77.9067 310.772 76.68C310.106 75.4533 309.199 74.52 308.052 73.88C306.932 73.2133 305.692 72.88 304.332 72.88C302.972 72.88 301.732 73.2 300.612 73.84C299.492 74.48 298.599 75.4133 297.932 76.64C297.266 77.8667 296.932 79.3067 296.932 80.96C296.932 82.64 297.266 84.1067 297.932 85.36C298.599 86.5867 299.492 87.5333 300.612 88.2C301.732 88.84 302.972 89.16 304.332 89.16C305.692 89.16 306.932 88.84 308.052 88.2C309.199 87.5333 310.106 86.5867 310.772 85.36C311.439 84.1067 311.772 82.6533 311.772 81ZM318.243 80.96C318.243 78.72 318.697 76.76 319.603 75.08C320.51 73.3733 321.75 72.0533 323.323 71.12C324.923 70.1867 326.697 69.72 328.643 69.72C330.563 69.72 332.23 70.1333 333.643 70.96C335.057 71.7867 336.11 72.8267 336.803 74.08V70.08H340.483V92H336.803V87.92C336.083 89.2 335.003 90.2667 333.563 91.12C332.15 91.9467 330.497 92.36 328.603 92.36C326.657 92.36 324.897 91.88 323.323 90.92C321.75 89.96 320.51 88.6133 319.603 86.88C318.697 85.1467 318.243 83.1733 318.243 80.96ZM336.803 81C336.803 79.3467 336.47 77.9067 335.803 76.68C335.137 75.4533 334.23 74.52 333.083 73.88C331.963 73.2133 330.723 72.88 329.363 72.88C328.003 72.88 326.763 73.2 325.643 73.84C324.523 74.48 323.63 75.4133 322.963 76.64C322.297 77.8667 321.963 79.3067 321.963 80.96C321.963 82.64 322.297 84.1067 322.963 85.36C323.63 86.5867 324.523 87.5333 325.643 88.2C326.763 88.84 328.003 89.16 329.363 89.16C330.723 89.16 331.963 88.84 333.083 88.2C334.23 87.5333 335.137 86.5867 335.803 85.36C336.47 84.1067 336.803 82.6533 336.803 81ZM356.939 74.16C357.685 72.8533 358.779 71.7867 360.219 70.96C361.659 70.1333 363.299 69.72 365.139 69.72C367.112 69.72 368.885 70.1867 370.459 71.12C372.032 72.0533 373.272 73.3733 374.179 75.08C375.085 76.76 375.539 78.72 375.539 80.96C375.539 83.1733 375.085 85.1467 374.179 86.88C373.272 88.6133 372.019 89.96 370.419 90.92C368.845 91.88 367.085 92.36 365.139 92.36C363.245 92.36 361.579 91.9467 360.139 91.12C358.725 90.2933 357.659 89.24 356.939 87.96V92H353.299V62.4H356.939V74.16ZM371.819 80.96C371.819 79.3067 371.485 77.8667 370.819 76.64C370.152 75.4133 369.245 74.48 368.099 73.84C366.979 73.2 365.739 72.88 364.379 72.88C363.045 72.88 361.805 73.2133 360.659 73.88C359.539 74.52 358.632 75.4667 357.939 76.72C357.272 77.9467 356.939 79.3733 356.939 81C356.939 82.6533 357.272 84.1067 357.939 85.36C358.632 86.5867 359.539 87.5333 360.659 88.2C361.805 88.84 363.045 89.16 364.379 89.16C365.739 89.16 366.979 88.84 368.099 88.2C369.245 87.5333 370.152 86.5867 370.819 85.36C371.485 84.1067 371.819 82.64 371.819 80.96ZM380.21 66.52C379.517 66.52 378.93 66.28 378.45 65.8C377.97 65.32 377.73 64.7333 377.73 64.04C377.73 63.3467 377.97 62.76 378.45 62.28C378.93 61.8 379.517 61.56 380.21 61.56C380.877 61.56 381.437 61.8 381.89 62.28C382.37 62.76 382.61 63.3467 382.61 64.04C382.61 64.7333 382.37 65.32 381.89 65.8C381.437 66.28 380.877 66.52 380.21 66.52ZM381.97 70.08V92H378.33V70.08H381.97ZM388.894 89H399.654V92H384.734V89L395.374 73.04H384.814V70.08H399.574V73.04L388.894 89ZM413.057 69.68C415.724 69.68 417.884 70.4933 419.537 72.12C421.19 73.72 422.017 76.04 422.017 79.08V92H418.417V79.6C418.417 77.4133 417.87 75.7467 416.777 74.6C415.684 73.4267 414.19 72.84 412.297 72.84C410.377 72.84 408.844 73.44 407.697 74.64C406.577 75.84 406.017 77.5867 406.017 79.88V92H402.377V70.08H406.017V73.2C406.737 72.08 407.71 71.2133 408.937 70.6C410.19 69.9867 411.564 69.68 413.057 69.68ZM445.963 80.2C445.963 80.8933 445.923 81.6267 445.843 82.4H428.323C428.456 84.56 429.189 86.2533 430.523 87.48C431.883 88.68 433.523 89.28 435.443 89.28C437.016 89.28 438.323 88.92 439.363 88.2C440.429 87.4533 441.176 86.4667 441.603 85.24H445.523C444.936 87.3467 443.763 89.0667 442.003 90.4C440.243 91.7067 438.056 92.36 435.443 92.36C433.363 92.36 431.496 91.8933 429.843 90.96C428.216 90.0267 426.936 88.7067 426.003 87C425.069 85.2667 424.603 83.2667 424.603 81C424.603 78.7333 425.056 76.7467 425.963 75.04C426.869 73.3333 428.136 72.0267 429.763 71.12C431.416 70.1867 433.309 69.72 435.443 69.72C437.523 69.72 439.363 70.1733 440.963 71.08C442.563 71.9867 443.789 73.24 444.643 74.84C445.523 76.4133 445.963 78.2 445.963 80.2ZM442.203 79.44C442.203 78.0533 441.896 76.8667 441.283 75.88C440.669 74.8667 439.829 74.1067 438.763 73.6C437.723 73.0667 436.563 72.8 435.283 72.8C433.443 72.8 431.869 73.3867 430.563 74.56C429.283 75.7333 428.549 77.36 428.363 79.44H442.203ZM456.528 92.36C454.848 92.36 453.341 92.08 452.008 91.52C450.674 90.9333 449.621 90.1333 448.848 89.12C448.074 88.08 447.648 86.8933 447.568 85.56H451.328C451.434 86.6533 451.941 87.5467 452.848 88.24C453.781 88.9333 454.994 89.28 456.488 89.28C457.874 89.28 458.968 88.9733 459.768 88.36C460.568 87.7467 460.968 86.9733 460.968 86.04C460.968 85.08 460.541 84.3733 459.688 83.92C458.834 83.44 457.514 82.9733 455.728 82.52C454.101 82.0933 452.768 81.6667 451.728 81.24C450.714 80.7867 449.834 80.1333 449.088 79.28C448.368 78.4 448.008 77.2533 448.008 75.84C448.008 74.72 448.341 73.6933 449.008 72.76C449.674 71.8267 450.621 71.0933 451.848 70.56C453.074 70 454.474 69.72 456.048 69.72C458.474 69.72 460.434 70.3333 461.928 71.56C463.421 72.7867 464.221 74.4667 464.328 76.6H460.688C460.608 75.4533 460.141 74.5333 459.288 73.84C458.461 73.1467 457.341 72.8 455.928 72.8C454.621 72.8 453.581 73.08 452.808 73.64C452.034 74.2 451.648 74.9333 451.648 75.84C451.648 76.56 451.874 77.16 452.328 77.64C452.808 78.0933 453.394 78.4667 454.088 78.76C454.808 79.0267 455.794 79.3333 457.048 79.68C458.621 80.1067 459.901 80.5333 460.888 80.96C461.874 81.36 462.714 81.9733 463.408 82.8C464.128 83.6267 464.501 84.7067 464.528 86.04C464.528 87.24 464.194 88.32 463.528 89.28C462.861 90.24 461.914 91 460.688 91.56C459.488 92.0933 458.101 92.36 456.528 92.36ZM469.546 66.52C468.853 66.52 468.266 66.28 467.786 65.8C467.306 65.32 467.066 64.7333 467.066 64.04C467.066 63.3467 467.306 62.76 467.786 62.28C468.266 61.8 468.853 61.56 469.546 61.56C470.213 61.56 470.773 61.8 471.226 62.28C471.706 62.76 471.946 63.3467 471.946 64.04C471.946 64.7333 471.706 65.32 471.226 65.8C470.773 66.28 470.213 66.52 469.546 66.52ZM471.306 70.08V92H467.666V70.08H471.306ZM486.19 69.68C488.856 69.68 491.016 70.4933 492.67 72.12C494.323 73.72 495.15 76.04 495.15 79.08V92H491.55V79.6C491.55 77.4133 491.003 75.7467 489.91 74.6C488.816 73.4267 487.323 72.84 485.43 72.84C483.51 72.84 481.976 73.44 480.83 74.64C479.71 75.84 479.15 77.5867 479.15 79.88V92H475.51V70.08H479.15V73.2C479.87 72.08 480.843 71.2133 482.07 70.6C483.323 69.9867 484.696 69.68 486.19 69.68ZM508.136 69.72C510.029 69.72 511.682 70.1333 513.096 70.96C514.536 71.7867 515.602 72.8267 516.296 74.08V70.08H519.976V92.48C519.976 94.48 519.549 96.2533 518.696 97.8C517.842 99.3733 516.616 100.6 515.016 101.48C513.442 102.36 511.602 102.8 509.496 102.8C506.616 102.8 504.216 102.12 502.296 100.76C500.376 99.4 499.242 97.5467 498.896 95.2H502.496C502.896 96.5333 503.722 97.6 504.976 98.4C506.229 99.2267 507.736 99.64 509.496 99.64C511.496 99.64 513.122 99.0133 514.376 97.76C515.656 96.5067 516.296 94.7467 516.296 92.48V87.88C515.576 89.16 514.509 90.2267 513.096 91.08C511.682 91.9333 510.029 92.36 508.136 92.36C506.189 92.36 504.416 91.88 502.816 90.92C501.242 89.96 500.002 88.6133 499.096 86.88C498.189 85.1467 497.736 83.1733 497.736 80.96C497.736 78.72 498.189 76.76 499.096 75.08C500.002 73.3733 501.242 72.0533 502.816 71.12C504.416 70.1867 506.189 69.72 508.136 69.72ZM516.296 81C516.296 79.3467 515.962 77.9067 515.296 76.68C514.629 75.4533 513.722 74.52 512.576 73.88C511.456 73.2133 510.216 72.88 508.856 72.88C507.496 72.88 506.256 73.2 505.136 73.84C504.016 74.48 503.122 75.4133 502.456 76.64C501.789 77.8667 501.456 79.3067 501.456 80.96C501.456 82.64 501.789 84.1067 502.456 85.36C503.122 86.5867 504.016 87.5333 505.136 88.2C506.256 88.84 507.496 89.16 508.856 89.16C510.216 89.16 511.456 88.84 512.576 88.2C513.722 87.5333 514.629 86.5867 515.296 85.36C515.962 84.1067 516.296 82.6533 516.296 81ZM526.007 66.52C525.314 66.52 524.727 66.28 524.247 65.8C523.767 65.32 523.527 64.7333 523.527 64.04C523.527 63.3467 523.767 62.76 524.247 62.28C524.727 61.8 525.314 61.56 526.007 61.56C526.674 61.56 527.234 61.8 527.687 62.28C528.167 62.76 528.407 63.3467 528.407 64.04C528.407 64.7333 528.167 65.32 527.687 65.8C527.234 66.28 526.674 66.52 526.007 66.52ZM527.767 70.08V92H524.127V70.08H527.767ZM534.691 89H545.451V92H530.531V89L541.171 73.04H530.611V70.08H545.371V73.04L534.691 89ZM576.278 70.08V92H572.638V88.76C571.944 89.88 570.971 90.76 569.718 91.4C568.491 92.0133 567.131 92.32 565.638 92.32C563.931 92.32 562.398 91.9733 561.038 91.28C559.678 90.56 558.598 89.4933 557.798 88.08C557.024 86.6667 556.638 84.9467 556.638 82.92V70.08H560.238V82.44C560.238 84.6 560.784 86.2667 561.878 87.44C562.971 88.5867 564.464 89.16 566.358 89.16C568.304 89.16 569.838 88.56 570.958 87.36C572.078 86.16 572.638 84.4133 572.638 82.12V70.08H576.278ZM579.064 81C579.064 78.7333 579.517 76.76 580.424 75.08C581.33 73.3733 582.584 72.0533 584.184 71.12C585.81 70.1867 587.664 69.72 589.744 69.72C592.437 69.72 594.65 70.3733 596.384 71.68C598.144 72.9867 599.304 74.8 599.864 77.12H595.944C595.57 75.7867 594.837 74.7333 593.744 73.96C592.677 73.1867 591.344 72.8 589.744 72.8C587.664 72.8 585.984 73.52 584.704 74.96C583.424 76.3733 582.784 78.3867 582.784 81C582.784 83.64 583.424 85.68 584.704 87.12C585.984 88.56 587.664 89.28 589.744 89.28C591.344 89.28 592.677 88.9067 593.744 88.16C594.81 87.4133 595.544 86.3467 595.944 84.96H599.864C599.277 87.2 598.104 89 596.344 90.36C594.584 91.6933 592.384 92.36 589.744 92.36C587.664 92.36 585.81 91.8933 584.184 90.96C582.584 90.0267 581.33 88.7067 580.424 87C579.517 85.2933 579.064 83.2933 579.064 81ZM613.601 69.68C615.254 69.68 616.747 70.04 618.081 70.76C619.414 71.4533 620.454 72.5067 621.201 73.92C621.974 75.3333 622.361 77.0533 622.361 79.08V92H618.761V79.6C618.761 77.4133 618.214 75.7467 617.121 74.6C616.027 73.4267 614.534 72.84 612.641 72.84C610.721 72.84 609.187 73.44 608.041 74.64C606.921 75.84 606.361 77.5867 606.361 79.88V92H602.721V62.4H606.361V73.2C607.081 72.08 608.067 71.2133 609.321 70.6C610.601 69.9867 612.027 69.68 613.601 69.68ZM645.747 70.08V92H642.107V88.76C641.413 89.88 640.44 90.76 639.187 91.4C637.96 92.0133 636.6 92.32 635.107 92.32C633.4 92.32 631.867 91.9733 630.507 91.28C629.147 90.56 628.067 89.4933 627.267 88.08C626.493 86.6667 626.107 84.9467 626.107 82.92V70.08H629.707V82.44C629.707 84.6 630.253 86.2667 631.347 87.44C632.44 88.5867 633.933 89.16 635.827 89.16C637.773 89.16 639.307 88.56 640.427 87.36C641.547 86.16 642.107 84.4133 642.107 82.12V70.08H645.747ZM660.573 69.68C663.239 69.68 665.399 70.4933 667.053 72.12C668.706 73.72 669.533 76.04 669.533 79.08V92H665.933V79.6C665.933 77.4133 665.386 75.7467 664.293 74.6C663.199 73.4267 661.706 72.84 659.813 72.84C657.893 72.84 656.359 73.44 655.213 74.64C654.093 75.84 653.533 77.5867 653.533 79.88V92H649.893V70.08H653.533V73.2C654.253 72.08 655.226 71.2133 656.453 70.6C657.706 69.9867 659.079 69.68 660.573 69.68ZM680.783 80.96C680.783 78.72 681.236 76.76 682.143 75.08C683.049 73.3733 684.289 72.0533 685.863 71.12C687.463 70.1867 689.236 69.72 691.183 69.72C693.103 69.72 694.769 70.1333 696.183 70.96C697.596 71.7867 698.649 72.8267 699.343 74.08V70.08H703.023V92H699.343V87.92C698.623 89.2 697.543 90.2667 696.103 91.12C694.689 91.9467 693.036 92.36 691.143 92.36C689.196 92.36 687.436 91.88 685.863 90.92C684.289 89.96 683.049 88.6133 682.143 86.88C681.236 85.1467 680.783 83.1733 680.783 80.96ZM699.343 81C699.343 79.3467 699.009 77.9067 698.343 76.68C697.676 75.4533 696.769 74.52 695.623 73.88C694.503 73.2133 693.263 72.88 691.903 72.88C690.543 72.88 689.303 73.2 688.183 73.84C687.063 74.48 686.169 75.4133 685.503 76.64C684.836 77.8667 684.503 79.3067 684.503 80.96C684.503 82.64 684.836 84.1067 685.503 85.36C686.169 86.5867 687.063 87.5333 688.183 88.2C689.303 88.84 690.543 89.16 691.903 89.16C693.263 89.16 694.503 88.84 695.623 88.2C696.769 87.5333 697.676 86.5867 698.343 85.36C699.009 84.1067 699.343 82.6533 699.343 81ZM717.854 69.68C720.52 69.68 722.68 70.4933 724.334 72.12C725.987 73.72 726.814 76.04 726.814 79.08V92H723.214V79.6C723.214 77.4133 722.667 75.7467 721.574 74.6C720.48 73.4267 718.987 72.84 717.094 72.84C715.174 72.84 713.64 73.44 712.494 74.64C711.374 75.84 710.814 77.5867 710.814 79.88V92H707.174V70.08H710.814V73.2C711.534 72.08 712.507 71.2133 713.734 70.6C714.987 69.9867 716.36 69.68 717.854 69.68ZM732.64 66.52C731.946 66.52 731.36 66.28 730.88 65.8C730.4 65.32 730.16 64.7333 730.16 64.04C730.16 63.3467 730.4 62.76 730.88 62.28C731.36 61.8 731.946 61.56 732.64 61.56C733.306 61.56 733.866 61.8 734.32 62.28C734.8 62.76 735.04 63.3467 735.04 64.04C735.04 64.7333 734.8 65.32 734.32 65.8C733.866 66.28 733.306 66.52 732.64 66.52ZM734.4 70.08V92H730.76V70.08H734.4ZM737.243 80.96C737.243 78.72 737.697 76.76 738.603 75.08C739.51 73.3733 740.75 72.0533 742.323 71.12C743.923 70.1867 745.71 69.72 747.683 69.72C749.577 69.72 751.23 70.1467 752.643 71C754.083 71.8267 755.137 72.8533 755.803 74.08V70.08H759.483V102.4H755.803V87.96C755.11 89.1867 754.043 90.2267 752.603 91.08C751.163 91.9333 749.483 92.36 747.563 92.36C745.643 92.36 743.897 91.88 742.323 90.92C740.75 89.96 739.51 88.6133 738.603 86.88C737.697 85.1467 737.243 83.1733 737.243 80.96ZM755.803 81C755.803 79.3467 755.47 77.9067 754.803 76.68C754.137 75.4533 753.23 74.52 752.083 73.88C750.963 73.2133 749.723 72.88 748.363 72.88C747.003 72.88 745.763 73.2 744.643 73.84C743.523 74.48 742.63 75.4133 741.963 76.64C741.297 77.8667 740.963 79.3067 740.963 80.96C740.963 82.64 741.297 84.1067 741.963 85.36C742.63 86.5867 743.523 87.5333 744.643 88.2C745.763 88.84 747.003 89.16 748.363 89.16C749.723 89.16 750.963 88.84 752.083 88.2C753.23 87.5333 754.137 86.5867 754.803 85.36C755.47 84.1067 755.803 82.6533 755.803 81ZM780.059 92.36C778.379 92.36 776.872 92.08 775.539 91.52C774.205 90.9333 773.152 90.1333 772.379 89.12C771.605 88.08 771.179 86.8933 771.099 85.56H774.859C774.965 86.6533 775.472 87.5467 776.379 88.24C777.312 88.9333 778.525 89.28 780.019 89.28C781.405 89.28 782.499 88.9733 783.299 88.36C784.099 87.7467 784.499 86.9733 784.499 86.04C784.499 85.08 784.072 84.3733 783.219 83.92C782.365 83.44 781.045 82.9733 779.259 82.52C777.632 82.0933 776.299 81.6667 775.259 81.24C774.245 80.7867 773.365 80.1333 772.619 79.28C771.899 78.4 771.539 77.2533 771.539 75.84C771.539 74.72 771.872 73.6933 772.539 72.76C773.205 71.8267 774.152 71.0933 775.379 70.56C776.605 70 778.005 69.72 779.579 69.72C782.005 69.72 783.965 70.3333 785.459 71.56C786.952 72.7867 787.752 74.4667 787.859 76.6H784.219C784.139 75.4533 783.672 74.5333 782.819 73.84C781.992 73.1467 780.872 72.8 779.459 72.8C778.152 72.8 777.112 73.08 776.339 73.64C775.565 74.2 775.179 74.9333 775.179 75.84C775.179 76.56 775.405 77.16 775.859 77.64C776.339 78.0933 776.925 78.4667 777.619 78.76C778.339 79.0267 779.325 79.3333 780.579 79.68C782.152 80.1067 783.432 80.5333 784.419 80.96C785.405 81.36 786.245 81.9733 786.939 82.8C787.659 83.6267 788.032 84.7067 788.059 86.04C788.059 87.24 787.725 88.32 787.059 89.28C786.392 90.24 785.445 91 784.219 91.56C783.019 92.0933 781.632 92.36 780.059 92.36ZM795.637 73.08V86C795.637 87.0667 795.864 87.8267 796.317 88.28C796.771 88.7067 797.557 88.92 798.677 88.92H801.357V92H798.077C796.051 92 794.531 91.5333 793.517 90.6C792.504 89.6667 791.997 88.1333 791.997 86V73.08H789.157V70.08H791.997V64.56H795.637V70.08H801.357V73.08H795.637ZM807.408 73.64C808.048 72.3867 808.954 71.4133 810.128 70.72C811.328 70.0267 812.781 69.68 814.488 69.68V73.44H813.528C809.448 73.44 807.408 75.6533 807.408 80.08V92H803.768V70.08H807.408V73.64ZM815.329 80.96C815.329 78.72 815.783 76.76 816.689 75.08C817.596 73.3733 818.836 72.0533 820.409 71.12C822.009 70.1867 823.783 69.72 825.729 69.72C827.649 69.72 829.316 70.1333 830.729 70.96C832.143 71.7867 833.196 72.8267 833.889 74.08V70.08H837.569V92H833.889V87.92C833.169 89.2 832.089 90.2667 830.649 91.12C829.236 91.9467 827.583 92.36 825.689 92.36C823.743 92.36 821.983 91.88 820.409 90.92C818.836 89.96 817.596 88.6133 816.689 86.88C815.783 85.1467 815.329 83.1733 815.329 80.96ZM833.889 81C833.889 79.3467 833.556 77.9067 832.889 76.68C832.223 75.4533 831.316 74.52 830.169 73.88C829.049 73.2133 827.809 72.88 826.449 72.88C825.089 72.88 823.849 73.2 822.729 73.84C821.609 74.48 820.716 75.4133 820.049 76.64C819.383 77.8667 819.049 79.3067 819.049 80.96C819.049 82.64 819.383 84.1067 820.049 85.36C820.716 86.5867 821.609 87.5333 822.729 88.2C823.849 88.84 825.089 89.16 826.449 89.16C827.809 89.16 829.049 88.84 830.169 88.2C831.316 87.5333 832.223 86.5867 832.889 85.36C833.556 84.1067 833.889 82.6533 833.889 81ZM846.161 73.08V86C846.161 87.0667 846.387 87.8267 846.841 88.28C847.294 88.7067 848.081 88.92 849.201 88.92H851.881V92H848.601C846.574 92 845.054 91.5333 844.041 90.6C843.027 89.6667 842.521 88.1333 842.521 86V73.08H839.681V70.08H842.521V64.56H846.161V70.08H851.881V73.08H846.161ZM874.291 80.2C874.291 80.8933 874.251 81.6267 874.171 82.4H856.651C856.784 84.56 857.518 86.2533 858.851 87.48C860.211 88.68 861.851 89.28 863.771 89.28C865.344 89.28 866.651 88.92 867.691 88.2C868.758 87.4533 869.504 86.4667 869.931 85.24H873.851C873.264 87.3467 872.091 89.0667 870.331 90.4C868.571 91.7067 866.384 92.36 863.771 92.36C861.691 92.36 859.824 91.8933 858.171 90.96C856.544 90.0267 855.264 88.7067 854.331 87C853.398 85.2667 852.931 83.2667 852.931 81C852.931 78.7333 853.384 76.7467 854.291 75.04C855.198 73.3333 856.464 72.0267 858.091 71.12C859.744 70.1867 861.638 69.72 863.771 69.72C865.851 69.72 867.691 70.1733 869.291 71.08C870.891 71.9867 872.118 73.24 872.971 74.84C873.851 76.4133 874.291 78.2 874.291 80.2ZM870.531 79.44C870.531 78.0533 870.224 76.8667 869.611 75.88C868.998 74.8667 868.158 74.1067 867.091 73.6C866.051 73.0667 864.891 72.8 863.611 72.8C861.771 72.8 860.198 73.3867 858.891 74.56C857.611 75.7333 856.878 77.36 856.691 79.44H870.531ZM886.136 69.72C888.029 69.72 889.682 70.1333 891.096 70.96C892.536 71.7867 893.602 72.8267 894.296 74.08V70.08H897.976V92.48C897.976 94.48 897.549 96.2533 896.696 97.8C895.842 99.3733 894.616 100.6 893.016 101.48C891.442 102.36 889.602 102.8 887.496 102.8C884.616 102.8 882.216 102.12 880.296 100.76C878.376 99.4 877.242 97.5467 876.896 95.2H880.496C880.896 96.5333 881.722 97.6 882.976 98.4C884.229 99.2267 885.736 99.64 887.496 99.64C889.496 99.64 891.122 99.0133 892.376 97.76C893.656 96.5067 894.296 94.7467 894.296 92.48V87.88C893.576 89.16 892.509 90.2267 891.096 91.08C889.682 91.9333 888.029 92.36 886.136 92.36C884.189 92.36 882.416 91.88 880.816 90.92C879.242 89.96 878.002 88.6133 877.096 86.88C876.189 85.1467 875.736 83.1733 875.736 80.96C875.736 78.72 876.189 76.76 877.096 75.08C878.002 73.3733 879.242 72.0533 880.816 71.12C882.416 70.1867 884.189 69.72 886.136 69.72ZM894.296 81C894.296 79.3467 893.962 77.9067 893.296 76.68C892.629 75.4533 891.722 74.52 890.576 73.88C889.456 73.2133 888.216 72.88 886.856 72.88C885.496 72.88 884.256 73.2 883.136 73.84C882.016 74.48 881.122 75.4133 880.456 76.64C879.789 77.8667 879.456 79.3067 879.456 80.96C879.456 82.64 879.789 84.1067 880.456 85.36C881.122 86.5867 882.016 87.5333 883.136 88.2C884.256 88.84 885.496 89.16 886.856 89.16C888.216 89.16 889.456 88.84 890.576 88.2C891.722 87.5333 892.629 86.5867 893.296 85.36C893.962 84.1067 894.296 82.6533 894.296 81ZM904.007 66.52C903.314 66.52 902.727 66.28 902.247 65.8C901.767 65.32 901.527 64.7333 901.527 64.04C901.527 63.3467 901.767 62.76 902.247 62.28C902.727 61.8 903.314 61.56 904.007 61.56C904.674 61.56 905.234 61.8 905.687 62.28C906.167 62.76 906.407 63.3467 906.407 64.04C906.407 64.7333 906.167 65.32 905.687 65.8C905.234 66.28 904.674 66.52 904.007 66.52ZM905.767 70.08V92H902.127V70.08H905.767ZM928.851 70.08L915.651 102.32H911.891L916.211 91.76L907.371 70.08H911.411L918.291 87.84L925.091 70.08H928.851ZM929.15 80.96C929.15 78.72 929.603 76.76 930.51 75.08C931.416 73.3733 932.656 72.0533 934.23 71.12C935.83 70.1867 937.603 69.72 939.55 69.72C941.47 69.72 943.136 70.1333 944.55 70.96C945.963 71.7867 947.016 72.8267 947.71 74.08V70.08H951.39V92H947.71V87.92C946.99 89.2 945.91 90.2667 944.47 91.12C943.056 91.9467 941.403 92.36 939.51 92.36C937.563 92.36 935.803 91.88 934.23 90.92C932.656 89.96 931.416 88.6133 930.51 86.88C929.603 85.1467 929.15 83.1733 929.15 80.96ZM947.71 81C947.71 79.3467 947.376 77.9067 946.71 76.68C946.043 75.4533 945.136 74.52 943.99 73.88C942.87 73.2133 941.63 72.88 940.27 72.88C938.91 72.88 937.67 73.2 936.55 73.84C935.43 74.48 934.536 75.4133 933.87 76.64C933.203 77.8667 932.87 79.3067 932.87 80.96C932.87 82.64 933.203 84.1067 933.87 85.36C934.536 86.5867 935.43 87.5333 936.55 88.2C937.67 88.84 938.91 89.16 940.27 89.16C941.63 89.16 942.87 88.84 943.99 88.2C945.136 87.5333 946.043 86.5867 946.71 85.36C947.376 84.1067 947.71 82.6533 947.71 81ZM966.085 66.52C965.392 66.52 964.805 66.28 964.325 65.8C963.845 65.32 963.605 64.7333 963.605 64.04C963.605 63.3467 963.845 62.76 964.325 62.28C964.805 61.8 965.392 61.56 966.085 61.56C966.752 61.56 967.312 61.8 967.765 62.28C968.245 62.76 968.485 63.3467 968.485 64.04C968.485 64.7333 968.245 65.32 967.765 65.8C967.312 66.28 966.752 66.52 966.085 66.52ZM967.845 70.08V92H964.205V70.08H967.845ZM979.809 92.36C978.129 92.36 976.622 92.08 975.289 91.52C973.955 90.9333 972.902 90.1333 972.129 89.12C971.355 88.08 970.929 86.8933 970.849 85.56H974.609C974.715 86.6533 975.222 87.5467 976.129 88.24C977.062 88.9333 978.275 89.28 979.769 89.28C981.155 89.28 982.249 88.9733 983.049 88.36C983.849 87.7467 984.249 86.9733 984.249 86.04C984.249 85.08 983.822 84.3733 982.969 83.92C982.115 83.44 980.795 82.9733 979.009 82.52C977.382 82.0933 976.049 81.6667 975.009 81.24C973.995 80.7867 973.115 80.1333 972.369 79.28C971.649 78.4 971.289 77.2533 971.289 75.84C971.289 74.72 971.622 73.6933 972.289 72.76C972.955 71.8267 973.902 71.0933 975.129 70.56C976.355 70 977.755 69.72 979.329 69.72C981.755 69.72 983.715 70.3333 985.209 71.56C986.702 72.7867 987.502 74.4667 987.609 76.6H983.969C983.889 75.4533 983.422 74.5333 982.569 73.84C981.742 73.1467 980.622 72.8 979.209 72.8C977.902 72.8 976.862 73.08 976.089 73.64C975.315 74.2 974.929 74.9333 974.929 75.84C974.929 76.56 975.155 77.16 975.609 77.64C976.089 78.0933 976.675 78.4667 977.369 78.76C978.089 79.0267 979.075 79.3333 980.329 79.68C981.902 80.1067 983.182 80.5333 984.169 80.96C985.155 81.36 985.995 81.9733 986.689 82.8C987.409 83.6267 987.782 84.7067 987.809 86.04C987.809 87.24 987.475 88.32 986.809 89.28C986.142 90.24 985.195 91 983.969 91.56C982.769 92.0933 981.382 92.36 979.809 92.36ZM1001.83 69.68C1003.48 69.68 1004.97 70.04 1006.31 70.76C1007.64 71.4533 1008.68 72.5067 1009.43 73.92C1010.2 75.3333 1010.59 77.0533 1010.59 79.08V92H1006.99V79.6C1006.99 77.4133 1006.44 75.7467 1005.35 74.6C1004.25 73.4267 1002.76 72.84 1000.87 72.84C998.947 72.84 997.414 73.44 996.267 74.64C995.147 75.84 994.587 77.5867 994.587 79.88V92H990.947V62.4H994.587V73.2C995.307 72.08 996.294 71.2133 997.547 70.6C998.827 69.9867 1000.25 69.68 1001.83 69.68ZM1018.17 62.4V92H1014.53V62.4H1018.17ZM1021.02 80.96C1021.02 78.72 1021.47 76.76 1022.38 75.08C1023.28 73.3733 1024.52 72.0533 1026.1 71.12C1027.7 70.1867 1029.47 69.72 1031.42 69.72C1033.34 69.72 1035 70.1333 1036.42 70.96C1037.83 71.7867 1038.88 72.8267 1039.58 74.08V70.08H1043.26V92H1039.58V87.92C1038.86 89.2 1037.78 90.2667 1036.34 91.12C1034.92 91.9467 1033.27 92.36 1031.38 92.36C1029.43 92.36 1027.67 91.88 1026.1 90.92C1024.52 89.96 1023.28 88.6133 1022.38 86.88C1021.47 85.1467 1021.02 83.1733 1021.02 80.96ZM1039.58 81C1039.58 79.3467 1039.24 77.9067 1038.58 76.68C1037.91 75.4533 1037 74.52 1035.86 73.88C1034.74 73.2133 1033.5 72.88 1032.14 72.88C1030.78 72.88 1029.54 73.2 1028.42 73.84C1027.3 74.48 1026.4 75.4133 1025.74 76.64C1025.07 77.8667 1024.74 79.3067 1024.74 80.96C1024.74 82.64 1025.07 84.1067 1025.74 85.36C1026.4 86.5867 1027.3 87.5333 1028.42 88.2C1029.54 88.84 1030.78 89.16 1032.14 89.16C1033.5 89.16 1034.74 88.84 1035.86 88.2C1037 87.5333 1037.91 86.5867 1038.58 85.36C1039.24 84.1067 1039.58 82.6533 1039.58 81ZM1051.05 74.16C1051.79 72.8533 1052.89 71.7867 1054.33 70.96C1055.77 70.1333 1057.41 69.72 1059.25 69.72C1061.22 69.72 1062.99 70.1867 1064.57 71.12C1066.14 72.0533 1067.38 73.3733 1068.29 75.08C1069.19 76.76 1069.65 78.72 1069.65 80.96C1069.65 83.1733 1069.19 85.1467 1068.29 86.88C1067.38 88.6133 1066.13 89.96 1064.53 90.92C1062.95 91.88 1061.19 92.36 1059.25 92.36C1057.35 92.36 1055.69 91.9467 1054.25 91.12C1052.83 90.2933 1051.77 89.24 1051.05 87.96V92H1047.41V62.4H1051.05V74.16ZM1065.93 80.96C1065.93 79.3067 1065.59 77.8667 1064.93 76.64C1064.26 75.4133 1063.35 74.48 1062.21 73.84C1061.09 73.2 1059.85 72.88 1058.49 72.88C1057.15 72.88 1055.91 73.2133 1054.77 73.88C1053.65 74.52 1052.74 75.4667 1052.05 76.72C1051.38 77.9467 1051.05 79.3733 1051.05 81C1051.05 82.6533 1051.38 84.1067 1052.05 85.36C1052.74 86.5867 1053.65 87.5333 1054.77 88.2C1055.91 88.84 1057.15 89.16 1058.49 89.16C1059.85 89.16 1061.09 88.84 1062.21 88.2C1063.35 87.5333 1064.26 86.5867 1064.93 85.36C1065.59 84.1067 1065.93 82.64 1065.93 80.96ZM1079.74 81C1079.74 78.7333 1080.2 76.76 1081.1 75.08C1082.01 73.3733 1083.26 72.0533 1084.86 71.12C1086.49 70.1867 1088.34 69.72 1090.42 69.72C1093.12 69.72 1095.33 70.3733 1097.06 71.68C1098.82 72.9867 1099.98 74.8 1100.54 77.12H1096.62C1096.25 75.7867 1095.52 74.7333 1094.42 73.96C1093.36 73.1867 1092.02 72.8 1090.42 72.8C1088.34 72.8 1086.66 73.52 1085.38 74.96C1084.1 76.3733 1083.46 78.3867 1083.46 81C1083.46 83.64 1084.1 85.68 1085.38 87.12C1086.66 88.56 1088.34 89.28 1090.42 89.28C1092.02 89.28 1093.36 88.9067 1094.42 88.16C1095.49 87.4133 1096.22 86.3467 1096.62 84.96H1100.54C1099.96 87.2 1098.78 89 1097.02 90.36C1095.26 91.6933 1093.06 92.36 1090.42 92.36C1088.34 92.36 1086.49 91.8933 1084.86 90.96C1083.26 90.0267 1082.01 88.7067 1081.1 87C1080.2 85.2933 1079.74 83.2933 1079.74 81ZM1114.28 69.68C1115.93 69.68 1117.43 70.04 1118.76 70.76C1120.09 71.4533 1121.13 72.5067 1121.88 73.92C1122.65 75.3333 1123.04 77.0533 1123.04 79.08V92H1119.44V79.6C1119.44 77.4133 1118.89 75.7467 1117.8 74.6C1116.71 73.4267 1115.21 72.84 1113.32 72.84C1111.4 72.84 1109.87 73.44 1108.72 74.64C1107.6 75.84 1107.04 77.5867 1107.04 79.88V92H1103.4V62.4H1107.04V73.2C1107.76 72.08 1108.75 71.2133 1110 70.6C1111.28 69.9867 1112.71 69.68 1114.28 69.68ZM1128.87 66.52C1128.17 66.52 1127.59 66.28 1127.11 65.8C1126.63 65.32 1126.39 64.7333 1126.39 64.04C1126.39 63.3467 1126.63 62.76 1127.11 62.28C1127.59 61.8 1128.17 61.56 1128.87 61.56C1129.53 61.56 1130.09 61.8 1130.55 62.28C1131.03 62.76 1131.27 63.3467 1131.27 64.04C1131.27 64.7333 1131.03 65.32 1130.55 65.8C1130.09 66.28 1129.53 66.52 1128.87 66.52ZM1130.63 70.08V92H1126.99V70.08H1130.63ZM1133.47 80.96C1133.47 78.72 1133.92 76.76 1134.83 75.08C1135.74 73.3733 1136.98 72.0533 1138.55 71.12C1140.15 70.1867 1141.94 69.72 1143.91 69.72C1145.8 69.72 1147.46 70.1467 1148.87 71C1150.31 71.8267 1151.36 72.8533 1152.03 74.08V70.08H1155.71V102.4H1152.03V87.96C1151.34 89.1867 1150.27 90.2267 1148.83 91.08C1147.39 91.9333 1145.71 92.36 1143.79 92.36C1141.87 92.36 1140.12 91.88 1138.55 90.92C1136.98 89.96 1135.74 88.6133 1134.83 86.88C1133.92 85.1467 1133.47 83.1733 1133.47 80.96ZM1152.03 81C1152.03 79.3467 1151.7 77.9067 1151.03 76.68C1150.36 75.4533 1149.46 74.52 1148.31 73.88C1147.19 73.2133 1145.95 72.88 1144.59 72.88C1143.23 72.88 1141.99 73.2 1140.87 73.84C1139.75 74.48 1138.86 75.4133 1138.19 76.64C1137.52 77.8667 1137.19 79.3067 1137.19 80.96C1137.19 82.64 1137.52 84.1067 1138.19 85.36C1138.86 86.5867 1139.75 87.5333 1140.87 88.2C1141.99 88.84 1143.23 89.16 1144.59 89.16C1145.95 89.16 1147.19 88.84 1148.31 88.2C1149.46 87.5333 1150.36 86.5867 1151.03 85.36C1151.7 84.1067 1152.03 82.6533 1152.03 81ZM1158.5 80.96C1158.5 78.72 1158.95 76.76 1159.86 75.08C1160.77 73.3733 1162.01 72.0533 1163.58 71.12C1165.18 70.1867 1166.95 69.72 1168.9 69.72C1170.82 69.72 1172.49 70.1333 1173.9 70.96C1175.31 71.7867 1176.37 72.8267 1177.06 74.08V70.08H1180.74V92H1177.06V87.92C1176.34 89.2 1175.26 90.2667 1173.82 91.12C1172.41 91.9467 1170.75 92.36 1168.86 92.36C1166.91 92.36 1165.15 91.88 1163.58 90.92C1162.01 89.96 1160.77 88.6133 1159.86 86.88C1158.95 85.1467 1158.5 83.1733 1158.5 80.96ZM1177.06 81C1177.06 79.3467 1176.73 77.9067 1176.06 76.68C1175.39 75.4533 1174.49 74.52 1173.34 73.88C1172.22 73.2133 1170.98 72.88 1169.62 72.88C1168.26 72.88 1167.02 73.2 1165.9 73.84C1164.78 74.48 1163.89 75.4133 1163.22 76.64C1162.55 77.8667 1162.22 79.3067 1162.22 80.96C1162.22 82.64 1162.55 84.1067 1163.22 85.36C1163.89 86.5867 1164.78 87.5333 1165.9 88.2C1167.02 88.84 1168.26 89.16 1169.62 89.16C1170.98 89.16 1172.22 88.84 1173.34 88.2C1174.49 87.5333 1175.39 86.5867 1176.06 85.36C1176.73 84.1067 1177.06 82.6533 1177.06 81ZM1211.25 69.68C1212.96 69.68 1214.48 70.04 1215.81 70.76C1217.15 71.4533 1218.2 72.5067 1218.97 73.92C1219.75 75.3333 1220.13 77.0533 1220.13 79.08V92H1216.53V79.6C1216.53 77.4133 1215.99 75.7467 1214.89 74.6C1213.83 73.4267 1212.37 72.84 1210.53 72.84C1208.64 72.84 1207.13 73.4533 1206.01 74.68C1204.89 75.88 1204.33 77.6267 1204.33 79.92V92H1200.73V79.6C1200.73 77.4133 1200.19 75.7467 1199.09 74.6C1198.03 73.4267 1196.57 72.84 1194.73 72.84C1192.84 72.84 1191.33 73.4533 1190.21 74.68C1189.09 75.88 1188.53 77.6267 1188.53 79.92V92H1184.89V70.08H1188.53V73.24C1189.25 72.0933 1190.21 71.2133 1191.41 70.6C1192.64 69.9867 1193.99 69.68 1195.45 69.68C1197.29 69.68 1198.92 70.0933 1200.33 70.92C1201.75 71.7467 1202.8 72.96 1203.49 74.56C1204.11 73.0133 1205.12 71.8133 1206.53 70.96C1207.95 70.1067 1209.52 69.68 1211.25 69.68ZM1225.98 66.52C1225.29 66.52 1224.7 66.28 1224.22 65.8C1223.74 65.32 1223.5 64.7333 1223.5 64.04C1223.5 63.3467 1223.74 62.76 1224.22 62.28C1224.7 61.8 1225.29 61.56 1225.98 61.56C1226.65 61.56 1227.21 61.8 1227.66 62.28C1228.14 62.76 1228.38 63.3467 1228.38 64.04C1228.38 64.7333 1228.14 65.32 1227.66 65.8C1227.21 66.28 1226.65 66.52 1225.98 66.52ZM1227.74 70.08V92H1224.1V70.08H1227.74ZM1234.67 89H1245.43V92H1230.51V89L1241.15 73.04H1230.59V70.08H1245.35V73.04L1234.67 89ZM1251.91 86.96L1247.43 97.72H1244.99L1247.91 86.96H1251.91ZM85.3528 119.16C86.0995 117.853 87.1928 116.787 88.6328 115.96C90.0728 115.133 91.7128 114.72 93.5528 114.72C95.5261 114.72 97.2995 115.187 98.8728 116.12C100.446 117.053 101.686 118.373 102.593 120.08C103.499 121.76 103.953 123.72 103.953 125.96C103.953 128.173 103.499 130.147 102.593 131.88C101.686 133.613 100.433 134.96 98.8328 135.92C97.2595 136.88 95.4995 137.36 93.5528 137.36C91.6595 137.36 89.9928 136.947 88.5528 136.12C87.1395 135.293 86.0728 134.24 85.3528 132.96V137H81.7128V107.4H85.3528V119.16ZM100.233 125.96C100.233 124.307 99.8995 122.867 99.2328 121.64C98.5661 120.413 97.6595 119.48 96.5128 118.84C95.3928 118.2 94.1528 117.88 92.7928 117.88C91.4595 117.88 90.2195 118.213 89.0728 118.88C87.9528 119.52 87.0461 120.467 86.3528 121.72C85.6861 122.947 85.3528 124.373 85.3528 126C85.3528 127.653 85.6861 129.107 86.3528 130.36C87.0461 131.587 87.9528 132.533 89.0728 133.2C90.2195 133.84 91.4595 134.16 92.7928 134.16C94.1528 134.16 95.3928 133.84 96.5128 133.2C97.6595 132.533 98.5661 131.587 99.2328 130.36C99.8995 129.107 100.233 127.64 100.233 125.96ZM110.384 118.64C111.024 117.387 111.931 116.413 113.104 115.72C114.304 115.027 115.757 114.68 117.464 114.68V118.44H116.504C112.424 118.44 110.384 120.653 110.384 125.08V137H106.744V115.08H110.384V118.64ZM139.666 125.2C139.666 125.893 139.626 126.627 139.546 127.4H122.026C122.159 129.56 122.893 131.253 124.226 132.48C125.586 133.68 127.226 134.28 129.146 134.28C130.719 134.28 132.026 133.92 133.066 133.2C134.133 132.453 134.879 131.467 135.306 130.24H139.226C138.639 132.347 137.466 134.067 135.706 135.4C133.946 136.707 131.759 137.36 129.146 137.36C127.066 137.36 125.199 136.893 123.546 135.96C121.919 135.027 120.639 133.707 119.706 132C118.773 130.267 118.306 128.267 118.306 126C118.306 123.733 118.759 121.747 119.666 120.04C120.573 118.333 121.839 117.027 123.466 116.12C125.119 115.187 127.013 114.72 129.146 114.72C131.226 114.72 133.066 115.173 134.666 116.08C136.266 116.987 137.493 118.24 138.346 119.84C139.226 121.413 139.666 123.2 139.666 125.2ZM135.906 124.44C135.906 123.053 135.599 121.867 134.986 120.88C134.373 119.867 133.533 119.107 132.466 118.6C131.426 118.067 130.266 117.8 128.986 117.8C127.146 117.8 125.573 118.387 124.266 119.56C122.986 120.733 122.253 122.36 122.066 124.44H135.906ZM153.151 114.68C155.817 114.68 157.977 115.493 159.631 117.12C161.284 118.72 162.111 121.04 162.111 124.08V137H158.511V124.6C158.511 122.413 157.964 120.747 156.871 119.6C155.777 118.427 154.284 117.84 152.391 117.84C150.471 117.84 148.937 118.44 147.791 119.64C146.671 120.84 146.111 122.587 146.111 124.88V137H142.471V115.08H146.111V118.2C146.831 117.08 147.804 116.213 149.031 115.6C150.284 114.987 151.657 114.68 153.151 114.68ZM164.697 125.96C164.697 123.72 165.15 121.76 166.057 120.08C166.963 118.373 168.203 117.053 169.777 116.12C171.377 115.187 173.163 114.72 175.137 114.72C176.843 114.72 178.43 115.12 179.897 115.92C181.363 116.693 182.483 117.72 183.257 119V107.4H186.937V137H183.257V132.88C182.537 134.187 181.47 135.267 180.057 136.12C178.643 136.947 176.99 137.36 175.097 137.36C173.15 137.36 171.377 136.88 169.777 135.92C168.203 134.96 166.963 133.613 166.057 131.88C165.15 130.147 164.697 128.173 164.697 125.96ZM183.257 126C183.257 124.347 182.923 122.907 182.257 121.68C181.59 120.453 180.683 119.52 179.537 118.88C178.417 118.213 177.177 117.88 175.817 117.88C174.457 117.88 173.217 118.2 172.097 118.84C170.977 119.48 170.083 120.413 169.417 121.64C168.75 122.867 168.417 124.307 168.417 125.96C168.417 127.64 168.75 129.107 169.417 130.36C170.083 131.587 170.977 132.533 172.097 133.2C173.217 133.84 174.457 134.16 175.817 134.16C177.177 134.16 178.417 133.84 179.537 133.2C180.683 132.533 181.59 131.587 182.257 130.36C182.923 129.107 183.257 127.653 183.257 126ZM192.968 111.52C192.274 111.52 191.688 111.28 191.208 110.8C190.728 110.32 190.488 109.733 190.488 109.04C190.488 108.347 190.728 107.76 191.208 107.28C191.688 106.8 192.274 106.56 192.968 106.56C193.634 106.56 194.194 106.8 194.648 107.28C195.128 107.76 195.368 108.347 195.368 109.04C195.368 109.733 195.128 110.32 194.648 110.8C194.194 111.28 193.634 111.52 192.968 111.52ZM194.728 115.08V137H191.088V115.08H194.728ZM209.612 114.68C212.278 114.68 214.438 115.493 216.092 117.12C217.745 118.72 218.572 121.04 218.572 124.08V137H214.972V124.6C214.972 122.413 214.425 120.747 213.332 119.6C212.238 118.427 210.745 117.84 208.852 117.84C206.932 117.84 205.398 118.44 204.252 119.64C203.132 120.84 202.572 122.587 202.572 124.88V137H198.932V115.08H202.572V118.2C203.292 117.08 204.265 116.213 205.492 115.6C206.745 114.987 208.118 114.68 209.612 114.68ZM231.558 114.72C233.451 114.72 235.104 115.133 236.518 115.96C237.958 116.787 239.024 117.827 239.718 119.08V115.08H243.398V137.48C243.398 139.48 242.971 141.253 242.118 142.8C241.264 144.373 240.038 145.6 238.438 146.48C236.864 147.36 235.024 147.8 232.918 147.8C230.038 147.8 227.638 147.12 225.718 145.76C223.798 144.4 222.664 142.547 222.318 140.2H225.918C226.318 141.533 227.144 142.6 228.398 143.4C229.651 144.227 231.158 144.64 232.918 144.64C234.918 144.64 236.544 144.013 237.798 142.76C239.078 141.507 239.718 139.747 239.718 137.48V132.88C238.998 134.16 237.931 135.227 236.518 136.08C235.104 136.933 233.451 137.36 231.558 137.36C229.611 137.36 227.838 136.88 226.238 135.92C224.664 134.96 223.424 133.613 222.518 131.88C221.611 130.147 221.158 128.173 221.158 125.96C221.158 123.72 221.611 121.76 222.518 120.08C223.424 118.373 224.664 117.053 226.238 116.12C227.838 115.187 229.611 114.72 231.558 114.72ZM239.718 126C239.718 124.347 239.384 122.907 238.718 121.68C238.051 120.453 237.144 119.52 235.998 118.88C234.878 118.213 233.638 117.88 232.278 117.88C230.918 117.88 229.678 118.2 228.558 118.84C227.438 119.48 226.544 120.413 225.878 121.64C225.211 122.867 224.878 124.307 224.878 125.96C224.878 127.64 225.211 129.107 225.878 130.36C226.544 131.587 227.438 132.533 228.558 133.2C229.678 133.84 230.918 134.16 232.278 134.16C233.638 134.16 234.878 133.84 235.998 133.2C237.144 132.533 238.051 131.587 238.718 130.36C239.384 129.107 239.718 127.653 239.718 126ZM249.429 111.52C248.735 111.52 248.149 111.28 247.669 110.8C247.189 110.32 246.949 109.733 246.949 109.04C246.949 108.347 247.189 107.76 247.669 107.28C248.149 106.8 248.735 106.56 249.429 106.56C250.095 106.56 250.655 106.8 251.109 107.28C251.589 107.76 251.829 108.347 251.829 109.04C251.829 109.733 251.589 110.32 251.109 110.8C250.655 111.28 250.095 111.52 249.429 111.52ZM251.189 115.08V137H247.549V115.08H251.189ZM258.113 134H268.873V137H253.953V134L264.593 118.04H254.033V115.08H268.793V118.04L258.113 134ZM282.276 114.68C284.942 114.68 287.102 115.493 288.756 117.12C290.409 118.72 291.236 121.04 291.236 124.08V137H287.636V124.6C287.636 122.413 287.089 120.747 285.996 119.6C284.902 118.427 283.409 117.84 281.516 117.84C279.596 117.84 278.062 118.44 276.916 119.64C275.796 120.84 275.236 122.587 275.236 124.88V137H271.596V115.08H275.236V118.2C275.956 117.08 276.929 116.213 278.156 115.6C279.409 114.987 280.782 114.68 282.276 114.68ZM297.062 111.52C296.368 111.52 295.782 111.28 295.302 110.8C294.822 110.32 294.582 109.733 294.582 109.04C294.582 108.347 294.822 107.76 295.302 107.28C295.782 106.8 296.368 106.56 297.062 106.56C297.728 106.56 298.288 106.8 298.742 107.28C299.222 107.76 299.462 108.347 299.462 109.04C299.462 109.733 299.222 110.32 298.742 110.8C298.288 111.28 297.728 111.52 297.062 111.52ZM298.822 115.08V137H295.182V115.08H298.822ZM338.049 114.68C339.756 114.68 341.276 115.04 342.609 115.76C343.943 116.453 344.996 117.507 345.769 118.92C346.543 120.333 346.929 122.053 346.929 124.08V137H343.329V124.6C343.329 122.413 342.783 120.747 341.689 119.6C340.623 118.427 339.169 117.84 337.329 117.84C335.436 117.84 333.929 118.453 332.809 119.68C331.689 120.88 331.129 122.627 331.129 124.92V137H327.529V124.6C327.529 122.413 326.983 120.747 325.889 119.6C324.823 118.427 323.369 117.84 321.529 117.84C319.636 117.84 318.129 118.453 317.009 119.68C315.889 120.88 315.329 122.627 315.329 124.92V137H311.689V115.08H315.329V118.24C316.049 117.093 317.009 116.213 318.209 115.6C319.436 114.987 320.783 114.68 322.249 114.68C324.089 114.68 325.716 115.093 327.129 115.92C328.543 116.747 329.596 117.96 330.289 119.56C330.903 118.013 331.916 116.813 333.329 115.96C334.743 115.107 336.316 114.68 338.049 114.68ZM370.34 115.08V137H366.7V133.76C366.007 134.88 365.034 135.76 363.78 136.4C362.554 137.013 361.194 137.32 359.7 137.32C357.994 137.32 356.46 136.973 355.1 136.28C353.74 135.56 352.66 134.493 351.86 133.08C351.087 131.667 350.7 129.947 350.7 127.92V115.08H354.3V127.44C354.3 129.6 354.847 131.267 355.94 132.44C357.034 133.587 358.527 134.16 360.42 134.16C362.367 134.16 363.9 133.56 365.02 132.36C366.14 131.16 366.7 129.413 366.7 127.12V115.08H370.34ZM382.246 137.36C380.566 137.36 379.06 137.08 377.726 136.52C376.393 135.933 375.34 135.133 374.566 134.12C373.793 133.08 373.366 131.893 373.286 130.56H377.046C377.153 131.653 377.66 132.547 378.566 133.24C379.5 133.933 380.713 134.28 382.206 134.28C383.593 134.28 384.686 133.973 385.486 133.36C386.286 132.747 386.686 131.973 386.686 131.04C386.686 130.08 386.26 129.373 385.406 128.92C384.553 128.44 383.233 127.973 381.446 127.52C379.82 127.093 378.486 126.667 377.446 126.24C376.433 125.787 375.553 125.133 374.806 124.28C374.086 123.4 373.726 122.253 373.726 120.84C373.726 119.72 374.06 118.693 374.726 117.76C375.393 116.827 376.34 116.093 377.566 115.56C378.793 115 380.193 114.72 381.766 114.72C384.193 114.72 386.153 115.333 387.646 116.56C389.14 117.787 389.94 119.467 390.046 121.6H386.406C386.326 120.453 385.86 119.533 385.006 118.84C384.18 118.147 383.06 117.8 381.646 117.8C380.34 117.8 379.3 118.08 378.526 118.64C377.753 119.2 377.366 119.933 377.366 120.84C377.366 121.56 377.593 122.16 378.046 122.64C378.526 123.093 379.113 123.467 379.806 123.76C380.526 124.027 381.513 124.333 382.766 124.68C384.34 125.107 385.62 125.533 386.606 125.96C387.593 126.36 388.433 126.973 389.126 127.8C389.846 128.627 390.22 129.707 390.246 131.04C390.246 132.24 389.913 133.32 389.246 134.28C388.58 135.24 387.633 136 386.406 136.56C385.206 137.093 383.82 137.36 382.246 137.36ZM397.825 118.08V131C397.825 132.067 398.051 132.827 398.505 133.28C398.958 133.707 399.745 133.92 400.865 133.92H403.545V137H400.265C398.238 137 396.718 136.533 395.705 135.6C394.691 134.667 394.185 133.133 394.185 131V118.08H391.345V115.08H394.185V109.56H397.825V115.08H403.545V118.08H397.825ZM404.595 125.96C404.595 123.72 405.048 121.76 405.955 120.08C406.862 118.373 408.102 117.053 409.675 116.12C411.275 115.187 413.048 114.72 414.995 114.72C416.915 114.72 418.582 115.133 419.995 115.96C421.408 116.787 422.462 117.827 423.155 119.08V115.08H426.835V137H423.155V132.92C422.435 134.2 421.355 135.267 419.915 136.12C418.502 136.947 416.848 137.36 414.955 137.36C413.008 137.36 411.248 136.88 409.675 135.92C408.102 134.96 406.862 133.613 405.955 131.88C405.048 130.147 404.595 128.173 404.595 125.96ZM423.155 126C423.155 124.347 422.822 122.907 422.155 121.68C421.488 120.453 420.582 119.52 419.435 118.88C418.315 118.213 417.075 117.88 415.715 117.88C414.355 117.88 413.115 118.2 411.995 118.84C410.875 119.48 409.982 120.413 409.315 121.64C408.648 122.867 408.315 124.307 408.315 125.96C408.315 127.64 408.648 129.107 409.315 130.36C409.982 131.587 410.875 132.533 411.995 133.2C413.115 133.84 414.355 134.16 415.715 134.16C417.075 134.16 418.315 133.84 419.435 133.2C420.582 132.533 421.488 131.587 422.155 130.36C422.822 129.107 423.155 127.653 423.155 126ZM441.866 114.68C443.52 114.68 445.013 115.04 446.346 115.76C447.68 116.453 448.72 117.507 449.466 118.92C450.24 120.333 450.626 122.053 450.626 124.08V137H447.026V124.6C447.026 122.413 446.48 120.747 445.386 119.6C444.293 118.427 442.8 117.84 440.906 117.84C438.986 117.84 437.453 118.44 436.306 119.64C435.186 120.84 434.626 122.587 434.626 124.88V137H430.986V107.4H434.626V118.2C435.346 117.08 436.333 116.213 437.586 115.6C438.866 114.987 440.293 114.68 441.866 114.68ZM466.812 137L458.212 127.32V137H454.572V107.4H458.212V124.8L466.652 115.08H471.732L461.412 126L471.772 137H466.812ZM471.798 125.96C471.798 123.72 472.251 121.76 473.158 120.08C474.065 118.373 475.305 117.053 476.878 116.12C478.478 115.187 480.251 114.72 482.198 114.72C484.118 114.72 485.785 115.133 487.198 115.96C488.611 116.787 489.665 117.827 490.358 119.08V115.08H494.038V137H490.358V132.92C489.638 134.2 488.558 135.267 487.118 136.12C485.705 136.947 484.051 137.36 482.158 137.36C480.211 137.36 478.451 136.88 476.878 135.92C475.305 134.96 474.065 133.613 473.158 131.88C472.251 130.147 471.798 128.173 471.798 125.96ZM490.358 126C490.358 124.347 490.025 122.907 489.358 121.68C488.691 120.453 487.785 119.52 486.638 118.88C485.518 118.213 484.278 117.88 482.918 117.88C481.558 117.88 480.318 118.2 479.198 118.84C478.078 119.48 477.185 120.413 476.518 121.64C475.851 122.867 475.518 124.307 475.518 125.96C475.518 127.64 475.851 129.107 476.518 130.36C477.185 131.587 478.078 132.533 479.198 133.2C480.318 133.84 481.558 134.16 482.918 134.16C484.278 134.16 485.518 133.84 486.638 133.2C487.785 132.533 488.691 131.587 489.358 130.36C490.025 129.107 490.358 127.653 490.358 126ZM524.549 114.68C526.256 114.68 527.776 115.04 529.109 115.76C530.443 116.453 531.496 117.507 532.269 118.92C533.043 120.333 533.429 122.053 533.429 124.08V137H529.829V124.6C529.829 122.413 529.283 120.747 528.189 119.6C527.123 118.427 525.669 117.84 523.829 117.84C521.936 117.84 520.429 118.453 519.309 119.68C518.189 120.88 517.629 122.627 517.629 124.92V137H514.029V124.6C514.029 122.413 513.483 120.747 512.389 119.6C511.323 118.427 509.869 117.84 508.029 117.84C506.136 117.84 504.629 118.453 503.509 119.68C502.389 120.88 501.829 122.627 501.829 124.92V137H498.189V115.08H501.829V118.24C502.549 117.093 503.509 116.213 504.709 115.6C505.936 114.987 507.283 114.68 508.749 114.68C510.589 114.68 512.216 115.093 513.629 115.92C515.043 116.747 516.096 117.96 516.789 119.56C517.403 118.013 518.416 116.813 519.829 115.96C521.243 115.107 522.816 114.68 524.549 114.68ZM541.04 107.4V137H537.4V107.4H541.04ZM543.884 125.96C543.884 123.72 544.337 121.76 545.244 120.08C546.151 118.373 547.391 117.053 548.964 116.12C550.564 115.187 552.337 114.72 554.284 114.72C556.204 114.72 557.871 115.133 559.284 115.96C560.697 116.787 561.751 117.827 562.444 119.08V115.08H566.124V137H562.444V132.92C561.724 134.2 560.644 135.267 559.204 136.12C557.791 136.947 556.137 137.36 554.244 137.36C552.297 137.36 550.537 136.88 548.964 135.92C547.391 134.96 546.151 133.613 545.244 131.88C544.337 130.147 543.884 128.173 543.884 125.96ZM562.444 126C562.444 124.347 562.111 122.907 561.444 121.68C560.777 120.453 559.871 119.52 558.724 118.88C557.604 118.213 556.364 117.88 555.004 117.88C553.644 117.88 552.404 118.2 551.284 118.84C550.164 119.48 549.271 120.413 548.604 121.64C547.937 122.867 547.604 124.307 547.604 125.96C547.604 127.64 547.937 129.107 548.604 130.36C549.271 131.587 550.164 132.533 551.284 133.2C552.404 133.84 553.644 134.16 555.004 134.16C556.364 134.16 557.604 133.84 558.724 133.2C559.871 132.533 560.777 131.587 561.444 130.36C562.111 129.107 562.444 127.653 562.444 126ZM589.155 115.08L575.955 147.32H572.195L576.515 136.76L567.675 115.08H571.715L578.595 132.84L585.395 115.08H589.155ZM617.174 114.68C618.881 114.68 620.401 115.04 621.734 115.76C623.068 116.453 624.121 117.507 624.894 118.92C625.668 120.333 626.054 122.053 626.054 124.08V137H622.454V124.6C622.454 122.413 621.908 120.747 620.814 119.6C619.748 118.427 618.294 117.84 616.454 117.84C614.561 117.84 613.054 118.453 611.934 119.68C610.814 120.88 610.254 122.627 610.254 124.92V137H606.654V124.6C606.654 122.413 606.108 120.747 605.014 119.6C603.948 118.427 602.494 117.84 600.654 117.84C598.761 117.84 597.254 118.453 596.134 119.68C595.014 120.88 594.454 122.627 594.454 124.92V137H590.814V115.08H594.454V118.24C595.174 117.093 596.134 116.213 597.334 115.6C598.561 114.987 599.908 114.68 601.374 114.68C603.214 114.68 604.841 115.093 606.254 115.92C607.668 116.747 608.721 117.96 609.414 119.56C610.028 118.013 611.041 116.813 612.454 115.96C613.868 115.107 615.441 114.68 617.174 114.68ZM631.905 111.52C631.212 111.52 630.625 111.28 630.145 110.8C629.665 110.32 629.425 109.733 629.425 109.04C629.425 108.347 629.665 107.76 630.145 107.28C630.625 106.8 631.212 106.56 631.905 106.56C632.572 106.56 633.132 106.8 633.585 107.28C634.065 107.76 634.305 108.347 634.305 109.04C634.305 109.733 634.065 110.32 633.585 110.8C633.132 111.28 632.572 111.52 631.905 111.52ZM633.665 115.08V137H630.025V115.08H633.665ZM640.589 134H651.349V137H636.429V134L647.069 118.04H636.509V115.08H651.269V118.04L640.589 134ZM670.896 133.64L677.696 115.08H681.576L672.976 137H668.736L660.136 115.08H664.056L670.896 133.64ZM681.798 125.96C681.798 123.72 682.251 121.76 683.158 120.08C684.065 118.373 685.305 117.053 686.878 116.12C688.478 115.187 690.251 114.72 692.198 114.72C694.118 114.72 695.785 115.133 697.198 115.96C698.611 116.787 699.665 117.827 700.358 119.08V115.08H704.038V137H700.358V132.92C699.638 134.2 698.558 135.267 697.118 136.12C695.705 136.947 694.051 137.36 692.158 137.36C690.211 137.36 688.451 136.88 686.878 135.92C685.305 134.96 684.065 133.613 683.158 131.88C682.251 130.147 681.798 128.173 681.798 125.96ZM700.358 126C700.358 124.347 700.025 122.907 699.358 121.68C698.691 120.453 697.785 119.52 696.638 118.88C695.518 118.213 694.278 117.88 692.918 117.88C691.558 117.88 690.318 118.2 689.198 118.84C688.078 119.48 687.185 120.413 686.518 121.64C685.851 122.867 685.518 124.307 685.518 125.96C685.518 127.64 685.851 129.107 686.518 130.36C687.185 131.587 688.078 132.533 689.198 133.2C690.318 133.84 691.558 134.16 692.918 134.16C694.278 134.16 695.518 133.84 696.638 133.2C697.785 132.533 698.691 131.587 699.358 130.36C700.025 129.107 700.358 127.653 700.358 126ZM724.613 137.36C722.933 137.36 721.427 137.08 720.093 136.52C718.76 135.933 717.707 135.133 716.933 134.12C716.16 133.08 715.733 131.893 715.653 130.56H719.413C719.52 131.653 720.027 132.547 720.933 133.24C721.867 133.933 723.08 134.28 724.573 134.28C725.96 134.28 727.053 133.973 727.853 133.36C728.653 132.747 729.053 131.973 729.053 131.04C729.053 130.08 728.627 129.373 727.773 128.92C726.92 128.44 725.6 127.973 723.813 127.52C722.187 127.093 720.853 126.667 719.813 126.24C718.8 125.787 717.92 125.133 717.173 124.28C716.453 123.4 716.093 122.253 716.093 120.84C716.093 119.72 716.427 118.693 717.093 117.76C717.76 116.827 718.707 116.093 719.933 115.56C721.16 115 722.56 114.72 724.133 114.72C726.56 114.72 728.52 115.333 730.013 116.56C731.507 117.787 732.307 119.467 732.413 121.6H728.773C728.693 120.453 728.227 119.533 727.373 118.84C726.547 118.147 725.427 117.8 724.013 117.8C722.707 117.8 721.667 118.08 720.893 118.64C720.12 119.2 719.733 119.933 719.733 120.84C719.733 121.56 719.96 122.16 720.413 122.64C720.893 123.093 721.48 123.467 722.173 123.76C722.893 124.027 723.88 124.333 725.133 124.68C726.707 125.107 727.987 125.533 728.973 125.96C729.96 126.36 730.8 126.973 731.493 127.8C732.213 128.627 732.587 129.707 732.613 131.04C732.613 132.24 732.28 133.32 731.613 134.28C730.947 135.24 730 136 728.773 136.56C727.573 137.093 726.187 137.36 724.613 137.36ZM745.312 137.36C743.259 137.36 741.392 136.893 739.712 135.96C738.059 135.027 736.752 133.707 735.792 132C734.859 130.267 734.392 128.267 734.392 126C734.392 123.76 734.872 121.787 735.832 120.08C736.819 118.347 738.152 117.027 739.832 116.12C741.512 115.187 743.392 114.72 745.472 114.72C747.552 114.72 749.432 115.187 751.112 116.12C752.792 117.027 754.112 118.333 755.072 120.04C756.059 121.747 756.552 123.733 756.552 126C756.552 128.267 756.045 130.267 755.032 132C754.045 133.707 752.699 135.027 750.992 135.96C749.285 136.893 747.392 137.36 745.312 137.36ZM745.312 134.16C746.619 134.16 747.845 133.853 748.992 133.24C750.139 132.627 751.059 131.707 751.752 130.48C752.472 129.253 752.832 127.76 752.832 126C752.832 124.24 752.485 122.747 751.792 121.52C751.099 120.293 750.192 119.387 749.072 118.8C747.952 118.187 746.739 117.88 745.432 117.88C744.099 117.88 742.872 118.187 741.752 118.8C740.659 119.387 739.779 120.293 739.112 121.52C738.445 122.747 738.112 124.24 738.112 126C738.112 127.787 738.432 129.293 739.072 130.52C739.739 131.747 740.619 132.667 741.712 133.28C742.805 133.867 744.005 134.16 745.312 134.16ZM763.778 118.08V131C763.778 132.067 764.004 132.827 764.458 133.28C764.911 133.707 765.698 133.92 766.818 133.92H769.498V137H766.218C764.191 137 762.671 136.533 761.658 135.6C760.644 134.667 760.138 133.133 760.138 131V118.08H757.298V115.08H760.138V109.56H763.778V115.08H769.498V118.08H763.778ZM791.348 115.08V137H787.708V133.76C787.015 134.88 786.041 135.76 784.788 136.4C783.561 137.013 782.201 137.32 780.708 137.32C779.001 137.32 777.468 136.973 776.108 136.28C774.748 135.56 773.668 134.493 772.868 133.08C772.095 131.667 771.708 129.947 771.708 127.92V115.08H775.308V127.44C775.308 129.6 775.855 131.267 776.948 132.44C778.041 133.587 779.535 134.16 781.428 134.16C783.375 134.16 784.908 133.56 786.028 132.36C787.148 131.16 787.708 129.413 787.708 127.12V115.08H791.348ZM803.654 133.64L810.454 115.08H814.334L805.734 137H801.494L792.894 115.08H796.814L803.654 133.64ZM826.596 114.68C829.263 114.68 831.423 115.493 833.076 117.12C834.729 118.72 835.556 121.04 835.556 124.08V137H831.956V124.6C831.956 122.413 831.409 120.747 830.316 119.6C829.223 118.427 827.729 117.84 825.836 117.84C823.916 117.84 822.383 118.44 821.236 119.64C820.116 120.84 819.556 122.587 819.556 124.88V137H815.916V115.08H819.556V118.2C820.276 117.08 821.249 116.213 822.476 115.6C823.729 114.987 825.103 114.68 826.596 114.68ZM841.382 111.52C840.689 111.52 840.102 111.28 839.622 110.8C839.142 110.32 838.902 109.733 838.902 109.04C838.902 108.347 839.142 107.76 839.622 107.28C840.102 106.8 840.689 106.56 841.382 106.56C842.049 106.56 842.609 106.8 843.062 107.28C843.542 107.76 843.782 108.347 843.782 109.04C843.782 109.733 843.542 110.32 843.062 110.8C842.609 111.28 842.049 111.52 841.382 111.52ZM843.142 115.08V137H839.502V115.08H843.142ZM866.69 114.68C869.356 114.68 871.516 115.493 873.17 117.12C874.823 118.72 875.65 121.04 875.65 124.08V137H872.05V124.6C872.05 122.413 871.503 120.747 870.41 119.6C869.316 118.427 867.823 117.84 865.93 117.84C864.01 117.84 862.476 118.44 861.33 119.64C860.21 120.84 859.65 122.587 859.65 124.88V137H856.01V115.08H859.65V118.2C860.37 117.08 861.343 116.213 862.57 115.6C863.823 114.987 865.196 114.68 866.69 114.68ZM878.236 125.96C878.236 123.72 878.689 121.76 879.596 120.08C880.502 118.373 881.742 117.053 883.316 116.12C884.916 115.187 886.689 114.72 888.636 114.72C890.556 114.72 892.222 115.133 893.636 115.96C895.049 116.787 896.102 117.827 896.796 119.08V115.08H900.476V137H896.796V132.92C896.076 134.2 894.996 135.267 893.556 136.12C892.142 136.947 890.489 137.36 888.596 137.36C886.649 137.36 884.889 136.88 883.316 135.92C881.742 134.96 880.502 133.613 879.596 131.88C878.689 130.147 878.236 128.173 878.236 125.96ZM896.796 126C896.796 124.347 896.462 122.907 895.796 121.68C895.129 120.453 894.222 119.52 893.076 118.88C891.956 118.213 890.716 117.88 889.356 117.88C887.996 117.88 886.756 118.2 885.636 118.84C884.516 119.48 883.622 120.413 882.956 121.64C882.289 122.867 881.956 124.307 881.956 125.96C881.956 127.64 882.289 129.107 882.956 130.36C883.622 131.587 884.516 132.533 885.636 133.2C886.756 133.84 887.996 134.16 889.356 134.16C890.716 134.16 891.956 133.84 893.076 133.2C894.222 132.533 895.129 131.587 895.796 130.36C896.462 129.107 896.796 127.653 896.796 126ZM909.067 118.08V131C909.067 132.067 909.294 132.827 909.747 133.28C910.2 133.707 910.987 133.92 912.107 133.92H914.787V137H911.507C909.48 137 907.96 136.533 906.947 135.6C905.934 134.667 905.427 133.133 905.427 131V118.08H902.587V115.08H905.427V109.56H909.067V115.08H914.787V118.08H909.067ZM919.077 111.52C918.384 111.52 917.797 111.28 917.317 110.8C916.837 110.32 916.597 109.733 916.597 109.04C916.597 108.347 916.837 107.76 917.317 107.28C917.797 106.8 918.384 106.56 919.077 106.56C919.744 106.56 920.304 106.8 920.757 107.28C921.237 107.76 921.477 108.347 921.477 109.04C921.477 109.733 921.237 110.32 920.757 110.8C920.304 111.28 919.744 111.52 919.077 111.52ZM920.837 115.08V137H917.197V115.08H920.837ZM927.001 111.52C926.308 111.52 925.721 111.28 925.241 110.8C924.788 110.32 924.561 109.733 924.561 109.04C924.561 108.347 924.788 107.76 925.241 107.28C925.721 106.8 926.308 106.56 927.001 106.56C927.694 106.56 928.268 106.8 928.721 107.28C929.201 107.76 929.441 108.347 929.441 109.04C929.441 109.733 929.201 110.32 928.721 110.8C928.268 111.28 927.694 111.52 927.001 111.52ZM928.801 141.76C928.801 143.707 928.308 145.133 927.321 146.04C926.334 146.947 924.894 147.4 923.001 147.4H920.881V144.32H922.401C923.414 144.32 924.121 144.12 924.521 143.72C924.948 143.32 925.161 142.64 925.161 141.68V115.08H928.801V141.76ZM931.603 125.96C931.603 123.72 932.056 121.76 932.963 120.08C933.869 118.373 935.109 117.053 936.683 116.12C938.283 115.187 940.056 114.72 942.003 114.72C943.923 114.72 945.589 115.133 947.003 115.96C948.416 116.787 949.469 117.827 950.163 119.08V115.08H953.843V137H950.163V132.92C949.443 134.2 948.363 135.267 946.923 136.12C945.509 136.947 943.856 137.36 941.963 137.36C940.016 137.36 938.256 136.88 936.683 135.92C935.109 134.96 933.869 133.613 932.963 131.88C932.056 130.147 931.603 128.173 931.603 125.96ZM950.163 126C950.163 124.347 949.829 122.907 949.163 121.68C948.496 120.453 947.589 119.52 946.443 118.88C945.323 118.213 944.083 117.88 942.723 117.88C941.363 117.88 940.123 118.2 939.003 118.84C937.883 119.48 936.989 120.413 936.323 121.64C935.656 122.867 935.323 124.307 935.323 125.96C935.323 127.64 935.656 129.107 936.323 130.36C936.989 131.587 937.883 132.533 939.003 133.2C940.123 133.84 941.363 134.16 942.723 134.16C944.083 134.16 945.323 133.84 946.443 133.2C947.589 132.533 948.496 131.587 949.163 130.36C949.829 129.107 950.163 127.653 950.163 126ZM967.034 114.72C968.927 114.72 970.581 115.133 971.994 115.96C973.434 116.787 974.501 117.827 975.194 119.08V115.08H978.874V137.48C978.874 139.48 978.447 141.253 977.594 142.8C976.741 144.373 975.514 145.6 973.914 146.48C972.341 147.36 970.501 147.8 968.394 147.8C965.514 147.8 963.114 147.12 961.194 145.76C959.274 144.4 958.141 142.547 957.794 140.2H961.394C961.794 141.533 962.621 142.6 963.874 143.4C965.127 144.227 966.634 144.64 968.394 144.64C970.394 144.64 972.021 144.013 973.274 142.76C974.554 141.507 975.194 139.747 975.194 137.48V132.88C974.474 134.16 973.407 135.227 971.994 136.08C970.581 136.933 968.927 137.36 967.034 137.36C965.087 137.36 963.314 136.88 961.714 135.92C960.141 134.96 958.901 133.613 957.994 131.88C957.087 130.147 956.634 128.173 956.634 125.96C956.634 123.72 957.087 121.76 957.994 120.08C958.901 118.373 960.141 117.053 961.714 116.12C963.314 115.187 965.087 114.72 967.034 114.72ZM975.194 126C975.194 124.347 974.861 122.907 974.194 121.68C973.527 120.453 972.621 119.52 971.474 118.88C970.354 118.213 969.114 117.88 967.754 117.88C966.394 117.88 965.154 118.2 964.034 118.84C962.914 119.48 962.021 120.413 961.354 121.64C960.687 122.867 960.354 124.307 960.354 125.96C960.354 127.64 960.687 129.107 961.354 130.36C962.021 131.587 962.914 132.533 964.034 133.2C965.154 133.84 966.394 134.16 967.754 134.16C969.114 134.16 970.354 133.84 971.474 133.2C972.621 132.533 973.527 131.587 974.194 130.36C974.861 129.107 975.194 127.653 975.194 126ZM981.665 125.96C981.665 123.72 982.119 121.76 983.025 120.08C983.932 118.373 985.172 117.053 986.745 116.12C988.345 115.187 990.119 114.72 992.065 114.72C993.985 114.72 995.652 115.133 997.065 115.96C998.479 116.787 999.532 117.827 1000.23 119.08V115.08H1003.91V137H1000.23V132.92C999.505 134.2 998.425 135.267 996.985 136.12C995.572 136.947 993.919 137.36 992.025 137.36C990.079 137.36 988.319 136.88 986.745 135.92C985.172 134.96 983.932 133.613 983.025 131.88C982.119 130.147 981.665 128.173 981.665 125.96ZM1000.23 126C1000.23 124.347 999.892 122.907 999.225 121.68C998.559 120.453 997.652 119.52 996.505 118.88C995.385 118.213 994.145 117.88 992.785 117.88C991.425 117.88 990.185 118.2 989.065 118.84C987.945 119.48 987.052 120.413 986.385 121.64C985.719 122.867 985.385 124.307 985.385 125.96C985.385 127.64 985.719 129.107 986.385 130.36C987.052 131.587 987.945 132.533 989.065 133.2C990.185 133.84 991.425 134.16 992.785 134.16C994.145 134.16 995.385 133.84 996.505 133.2C997.652 132.533 998.559 131.587 999.225 130.36C999.892 129.107 1000.23 127.653 1000.23 126ZM1035.6 115.08L1022.4 147.32H1018.64L1022.96 136.76L1014.12 115.08H1018.16L1025.04 132.84L1031.84 115.08H1035.6ZM1046.82 137.36C1044.77 137.36 1042.9 136.893 1041.22 135.96C1039.57 135.027 1038.26 133.707 1037.3 132C1036.37 130.267 1035.9 128.267 1035.9 126C1035.9 123.76 1036.38 121.787 1037.34 120.08C1038.33 118.347 1039.66 117.027 1041.34 116.12C1043.02 115.187 1044.9 114.72 1046.98 114.72C1049.06 114.72 1050.94 115.187 1052.62 116.12C1054.3 117.027 1055.62 118.333 1056.58 120.04C1057.57 121.747 1058.06 123.733 1058.06 126C1058.06 128.267 1057.55 130.267 1056.54 132C1055.55 133.707 1054.21 135.027 1052.5 135.96C1050.79 136.893 1048.9 137.36 1046.82 137.36ZM1046.82 134.16C1048.13 134.16 1049.35 133.853 1050.5 133.24C1051.65 132.627 1052.57 131.707 1053.26 130.48C1053.98 129.253 1054.34 127.76 1054.34 126C1054.34 124.24 1053.99 122.747 1053.3 121.52C1052.61 120.293 1051.7 119.387 1050.58 118.8C1049.46 118.187 1048.25 117.88 1046.94 117.88C1045.61 117.88 1044.38 118.187 1043.26 118.8C1042.17 119.387 1041.29 120.293 1040.62 121.52C1039.95 122.747 1039.62 124.24 1039.62 126C1039.62 127.787 1039.94 129.293 1040.58 130.52C1041.25 131.747 1042.13 132.667 1043.22 133.28C1044.31 133.867 1045.51 134.16 1046.82 134.16ZM1062.81 118.2H1058.73L1062.57 109.12H1065.17L1062.81 118.2ZM1078.28 114.68C1080.94 114.68 1083.1 115.493 1084.76 117.12C1086.41 118.72 1087.24 121.04 1087.24 124.08V137H1083.64V124.6C1083.64 122.413 1083.09 120.747 1082 119.6C1080.9 118.427 1079.41 117.84 1077.52 117.84C1075.6 117.84 1074.06 118.44 1072.92 119.64C1071.8 120.84 1071.24 122.587 1071.24 124.88V137H1067.6V115.08H1071.24V118.2C1071.96 117.08 1072.93 116.213 1074.16 115.6C1075.41 114.987 1076.78 114.68 1078.28 114.68ZM1089.82 125.96C1089.82 123.72 1090.27 121.76 1091.18 120.08C1092.09 118.373 1093.33 117.053 1094.9 116.12C1096.5 115.187 1098.27 114.72 1100.22 114.72C1102.14 114.72 1103.81 115.133 1105.22 115.96C1106.63 116.787 1107.69 117.827 1108.38 119.08V115.08H1112.06V137H1108.38V132.92C1107.66 134.2 1106.58 135.267 1105.14 136.12C1103.73 136.947 1102.07 137.36 1100.18 137.36C1098.23 137.36 1096.47 136.88 1094.9 135.92C1093.33 134.96 1092.09 133.613 1091.18 131.88C1090.27 130.147 1089.82 128.173 1089.82 125.96ZM1108.38 126C1108.38 124.347 1108.05 122.907 1107.38 121.68C1106.71 120.453 1105.81 119.52 1104.66 118.88C1103.54 118.213 1102.3 117.88 1100.94 117.88C1099.58 117.88 1098.34 118.2 1097.22 118.84C1096.1 119.48 1095.21 120.413 1094.54 121.64C1093.87 122.867 1093.54 124.307 1093.54 125.96C1093.54 127.64 1093.87 129.107 1094.54 130.36C1095.21 131.587 1096.1 132.533 1097.22 133.2C1098.34 133.84 1099.58 134.16 1100.94 134.16C1102.3 134.16 1103.54 133.84 1104.66 133.2C1105.81 132.533 1106.71 131.587 1107.38 130.36C1108.05 129.107 1108.38 127.653 1108.38 126ZM1119.85 107.4V137H1116.21V107.4H1119.85ZM1128.5 118.08V131C1128.5 132.067 1128.72 132.827 1129.18 133.28C1129.63 133.707 1130.42 133.92 1131.54 133.92H1134.22V137H1130.94C1128.91 137 1127.39 136.533 1126.38 135.6C1125.36 134.667 1124.86 133.133 1124.86 131V118.08H1122.02V115.08H1124.86V109.56H1128.5V115.08H1134.22V118.08H1128.5ZM1138.51 111.52C1137.81 111.52 1137.23 111.28 1136.75 110.8C1136.27 110.32 1136.03 109.733 1136.03 109.04C1136.03 108.347 1136.27 107.76 1136.75 107.28C1137.23 106.8 1137.81 106.56 1138.51 106.56C1139.17 106.56 1139.73 106.8 1140.19 107.28C1140.67 107.76 1140.91 108.347 1140.91 109.04C1140.91 109.733 1140.67 110.32 1140.19 110.8C1139.73 111.28 1139.17 111.52 1138.51 111.52ZM1140.27 115.08V137H1136.63V115.08H1140.27ZM1148.11 118.64C1148.75 117.387 1149.66 116.413 1150.83 115.72C1152.03 115.027 1153.48 114.68 1155.19 114.68V118.44H1154.23C1150.15 118.44 1148.11 120.653 1148.11 125.08V137H1144.47V115.08H1148.11V118.64ZM1156.03 125.96C1156.03 123.72 1156.49 121.76 1157.39 120.08C1158.3 118.373 1159.54 117.053 1161.11 116.12C1162.71 115.187 1164.49 114.72 1166.43 114.72C1168.35 114.72 1170.02 115.133 1171.43 115.96C1172.85 116.787 1173.9 117.827 1174.59 119.08V115.08H1178.27V137H1174.59V132.92C1173.87 134.2 1172.79 135.267 1171.35 136.12C1169.94 136.947 1168.29 137.36 1166.39 137.36C1164.45 137.36 1162.69 136.88 1161.11 135.92C1159.54 134.96 1158.3 133.613 1157.39 131.88C1156.49 130.147 1156.03 128.173 1156.03 125.96ZM1174.59 126C1174.59 124.347 1174.26 122.907 1173.59 121.68C1172.93 120.453 1172.02 119.52 1170.87 118.88C1169.75 118.213 1168.51 117.88 1167.15 117.88C1165.79 117.88 1164.55 118.2 1163.43 118.84C1162.31 119.48 1161.42 120.413 1160.75 121.64C1160.09 122.867 1159.75 124.307 1159.75 125.96C1159.75 127.64 1160.09 129.107 1160.75 130.36C1161.42 131.587 1162.31 132.533 1163.43 133.2C1164.55 133.84 1165.79 134.16 1167.15 134.16C1168.51 134.16 1169.75 133.84 1170.87 133.2C1172.02 132.533 1172.93 131.587 1173.59 130.36C1174.26 129.107 1174.59 127.653 1174.59 126ZM1208.78 114.68C1210.49 114.68 1212.01 115.04 1213.34 115.76C1214.68 116.453 1215.73 117.507 1216.5 118.92C1217.28 120.333 1217.66 122.053 1217.66 124.08V137H1214.06V124.6C1214.06 122.413 1213.52 120.747 1212.42 119.6C1211.36 118.427 1209.9 117.84 1208.06 117.84C1206.17 117.84 1204.66 118.453 1203.54 119.68C1202.42 120.88 1201.86 122.627 1201.86 124.92V137H1198.26V124.6C1198.26 122.413 1197.72 120.747 1196.62 119.6C1195.56 118.427 1194.1 117.84 1192.26 117.84C1190.37 117.84 1188.86 118.453 1187.74 119.68C1186.62 120.88 1186.06 122.627 1186.06 124.92V137H1182.42V115.08H1186.06V118.24C1186.78 117.093 1187.74 116.213 1188.94 115.6C1190.17 114.987 1191.52 114.68 1192.98 114.68C1194.82 114.68 1196.45 115.093 1197.86 115.92C1199.28 116.747 1200.33 117.96 1201.02 119.56C1201.64 118.013 1202.65 116.813 1204.06 115.96C1205.48 115.107 1207.05 114.68 1208.78 114.68ZM1223.51 111.52C1222.82 111.52 1222.23 111.28 1221.75 110.8C1221.27 110.32 1221.03 109.733 1221.03 109.04C1221.03 108.347 1221.27 107.76 1221.75 107.28C1222.23 106.8 1222.82 106.56 1223.51 106.56C1224.18 106.56 1224.74 106.8 1225.19 107.28C1225.67 107.76 1225.91 108.347 1225.91 109.04C1225.91 109.733 1225.67 110.32 1225.19 110.8C1224.74 111.28 1224.18 111.52 1223.51 111.52ZM1225.27 115.08V137H1221.63V115.08H1225.27ZM1232.2 134H1242.96V137H1228.04V134L1238.68 118.04H1228.12V115.08H1242.88V118.04L1232.2 134ZM1246.84 137.24C1246.15 137.24 1245.56 137 1245.08 136.52C1244.6 136.04 1244.36 135.453 1244.36 134.76C1244.36 134.067 1244.6 133.48 1245.08 133C1245.56 132.52 1246.15 132.28 1246.84 132.28C1247.51 132.28 1248.07 132.52 1248.52 133C1249 133.48 1249.24 134.067 1249.24 134.76C1249.24 135.453 1249 136.04 1248.52 136.52C1248.07 137 1247.51 137.24 1246.84 137.24Z" fill="black"/>
<g filter="url(#filter0_d_0_59)">
<rect x="390" y="164" width="512" height="80" rx="15" fill="#77E095"/>
</g>
<path d="M567.896 203.64C568.91 203.8 569.83 204.213 570.656 204.88C571.51 205.547 572.176 206.373 572.656 207.36C573.163 208.347 573.416 209.4 573.416 210.52C573.416 211.933 573.056 213.213 572.336 214.36C571.616 215.48 570.563 216.373 569.176 217.04C567.816 217.68 566.203 218 564.336 218H553.936V190.12H563.936C565.83 190.12 567.443 190.44 568.776 191.08C570.11 191.693 571.11 192.533 571.776 193.6C572.443 194.667 572.776 195.867 572.776 197.2C572.776 198.853 572.323 200.227 571.416 201.32C570.536 202.387 569.363 203.16 567.896 203.64ZM557.576 202.16H563.696C565.403 202.16 566.723 201.76 567.656 200.96C568.59 200.16 569.056 199.053 569.056 197.64C569.056 196.227 568.59 195.12 567.656 194.32C566.723 193.52 565.376 193.12 563.616 193.12H557.576V202.16ZM564.016 215C565.83 215 567.243 214.573 568.256 213.72C569.27 212.867 569.776 211.68 569.776 210.16C569.776 208.613 569.243 207.4 568.176 206.52C567.11 205.613 565.683 205.16 563.896 205.16H557.576V215H564.016ZM586.427 218.36C584.374 218.36 582.507 217.893 580.827 216.96C579.174 216.027 577.867 214.707 576.907 213C575.974 211.267 575.507 209.267 575.507 207C575.507 204.76 575.987 202.787 576.947 201.08C577.934 199.347 579.267 198.027 580.947 197.12C582.627 196.187 584.507 195.72 586.587 195.72C588.667 195.72 590.547 196.187 592.227 197.12C593.907 198.027 595.227 199.333 596.187 201.04C597.174 202.747 597.667 204.733 597.667 207C597.667 209.267 597.161 211.267 596.147 213C595.161 214.707 593.814 216.027 592.107 216.96C590.401 217.893 588.507 218.36 586.427 218.36ZM586.427 215.16C587.734 215.16 588.961 214.853 590.107 214.24C591.254 213.627 592.174 212.707 592.867 211.48C593.587 210.253 593.947 208.76 593.947 207C593.947 205.24 593.601 203.747 592.907 202.52C592.214 201.293 591.307 200.387 590.187 199.8C589.067 199.187 587.854 198.88 586.547 198.88C585.214 198.88 583.987 199.187 582.867 199.8C581.774 200.387 580.894 201.293 580.227 202.52C579.561 203.747 579.227 205.24 579.227 207C579.227 208.787 579.547 210.293 580.187 211.52C580.854 212.747 581.734 213.667 582.827 214.28C583.921 214.867 585.121 215.16 586.427 215.16ZM609.893 195.72C611.787 195.72 613.44 196.133 614.853 196.96C616.293 197.787 617.36 198.827 618.053 200.08V196.08H621.733V218.48C621.733 220.48 621.307 222.253 620.453 223.8C619.6 225.373 618.373 226.6 616.773 227.48C615.2 228.36 613.36 228.8 611.253 228.8C608.373 228.8 605.973 228.12 604.053 226.76C602.133 225.4 601 223.547 600.653 221.2H604.253C604.653 222.533 605.48 223.6 606.733 224.4C607.987 225.227 609.493 225.64 611.253 225.64C613.253 225.64 614.88 225.013 616.133 223.76C617.413 222.507 618.053 220.747 618.053 218.48V213.88C617.333 215.16 616.267 216.227 614.853 217.08C613.44 217.933 611.787 218.36 609.893 218.36C607.947 218.36 606.173 217.88 604.573 216.92C603 215.96 601.76 214.613 600.853 212.88C599.947 211.147 599.493 209.173 599.493 206.96C599.493 204.72 599.947 202.76 600.853 201.08C601.76 199.373 603 198.053 604.573 197.12C606.173 196.187 607.947 195.72 609.893 195.72ZM618.053 207C618.053 205.347 617.72 203.907 617.053 202.68C616.387 201.453 615.48 200.52 614.333 199.88C613.213 199.213 611.973 198.88 610.613 198.88C609.253 198.88 608.013 199.2 606.893 199.84C605.773 200.48 604.88 201.413 604.213 202.64C603.547 203.867 603.213 205.307 603.213 206.96C603.213 208.64 603.547 210.107 604.213 211.36C604.88 212.587 605.773 213.533 606.893 214.2C608.013 214.84 609.253 215.16 610.613 215.16C611.973 215.16 613.213 214.84 614.333 214.2C615.48 213.533 616.387 212.587 617.053 211.36C617.72 210.107 618.053 208.653 618.053 207ZM626.845 190.12H630.885L627.045 199.2H624.485L626.845 190.12ZM637.075 188.4V218H633.435V188.4H637.075ZM640.318 206.96C640.318 204.72 640.772 202.76 641.678 201.08C642.585 199.373 643.825 198.053 645.398 197.12C646.998 196.187 648.772 195.72 650.718 195.72C652.638 195.72 654.305 196.133 655.718 196.96C657.132 197.787 658.185 198.827 658.878 200.08V196.08H662.558V218H658.878V213.92C658.158 215.2 657.078 216.267 655.638 217.12C654.225 217.947 652.572 218.36 650.678 218.36C648.732 218.36 646.972 217.88 645.398 216.92C643.825 215.96 642.585 214.613 641.678 212.88C640.772 211.147 640.318 209.173 640.318 206.96ZM658.878 207C658.878 205.347 658.545 203.907 657.878 202.68C657.212 201.453 656.305 200.52 655.158 199.88C654.038 199.213 652.798 198.88 651.438 198.88C650.078 198.88 648.838 199.2 647.718 199.84C646.598 200.48 645.705 201.413 645.038 202.64C644.372 203.867 644.038 205.307 644.038 206.96C644.038 208.64 644.372 210.107 645.038 211.36C645.705 212.587 646.598 213.533 647.718 214.2C648.838 214.84 650.078 215.16 651.438 215.16C652.798 215.16 654.038 214.84 655.158 214.2C656.305 213.533 657.212 212.587 657.878 211.36C658.545 210.107 658.878 208.653 658.878 207ZM677.79 195.68C680.456 195.68 682.616 196.493 684.27 198.12C685.923 199.72 686.75 202.04 686.75 205.08V218H683.15V205.6C683.15 203.413 682.603 201.747 681.51 200.6C680.416 199.427 678.923 198.84 677.03 198.84C675.11 198.84 673.576 199.44 672.43 200.64C671.31 201.84 670.75 203.587 670.75 205.88V218H667.11V196.08H670.75V199.2C671.47 198.08 672.443 197.213 673.67 196.6C674.923 195.987 676.296 195.68 677.79 195.68ZM692.976 192.52C692.282 192.52 691.696 192.28 691.216 191.8C690.736 191.32 690.496 190.733 690.496 190.04C690.496 189.347 690.736 188.76 691.216 188.28C691.696 187.8 692.282 187.56 692.976 187.56C693.642 187.56 694.202 187.8 694.656 188.28C695.136 188.76 695.376 189.347 695.376 190.04C695.376 190.733 695.136 191.32 694.656 191.8C694.202 192.28 693.642 192.52 692.976 192.52ZM694.736 196.08V218H691.096V196.08H694.736ZM707.099 218.36C705.419 218.36 703.913 218.08 702.579 217.52C701.246 216.933 700.193 216.133 699.419 215.12C698.646 214.08 698.219 212.893 698.139 211.56H701.899C702.006 212.653 702.513 213.547 703.419 214.24C704.353 214.933 705.566 215.28 707.059 215.28C708.446 215.28 709.539 214.973 710.339 214.36C711.139 213.747 711.539 212.973 711.539 212.04C711.539 211.08 711.113 210.373 710.259 209.92C709.406 209.44 708.086 208.973 706.299 208.52C704.673 208.093 703.339 207.667 702.299 207.24C701.286 206.787 700.406 206.133 699.659 205.28C698.939 204.4 698.579 203.253 698.579 201.84C698.579 200.72 698.913 199.693 699.579 198.76C700.246 197.827 701.193 197.093 702.419 196.56C703.646 196 705.046 195.72 706.619 195.72C709.046 195.72 711.006 196.333 712.499 197.56C713.993 198.787 714.793 200.467 714.899 202.6H711.259C711.179 201.453 710.713 200.533 709.859 199.84C709.033 199.147 707.913 198.8 706.499 198.8C705.193 198.8 704.153 199.08 703.379 199.64C702.606 200.2 702.219 200.933 702.219 201.84C702.219 202.56 702.446 203.16 702.899 203.64C703.379 204.093 703.966 204.467 704.659 204.76C705.379 205.027 706.366 205.333 707.619 205.68C709.193 206.107 710.473 206.533 711.459 206.96C712.446 207.36 713.286 207.973 713.979 208.8C714.699 209.627 715.073 210.707 715.099 212.04C715.099 213.24 714.766 214.32 714.099 215.28C713.433 216.24 712.486 217 711.259 217.56C710.059 218.093 708.673 218.36 707.099 218.36ZM729.518 195.68C731.171 195.68 732.664 196.04 733.998 196.76C735.331 197.453 736.371 198.507 737.118 199.92C737.891 201.333 738.278 203.053 738.278 205.08V218H734.678V205.6C734.678 203.413 734.131 201.747 733.038 200.6C731.944 199.427 730.451 198.84 728.558 198.84C726.638 198.84 725.104 199.44 723.958 200.64C722.838 201.84 722.278 203.587 722.278 205.88V218H718.638V188.4H722.278V199.2C722.998 198.08 723.984 197.213 725.238 196.6C726.518 195.987 727.944 195.68 729.518 195.68Z" fill="#070707"/>
<defs>
<filter id="filter0_d_0_59" x="375" y="153" width="542" height="110" filterUnits="userSpaceOnUse" color-interpolation-filters="sRGB">
<feFlood flood-opacity="0" result="BackgroundImageFix"/>
<feColorMatrix in="SourceAlpha" type="matrix" values="0 0 0 0 0 0 0 0 0 0 0 0 0 0 0 0 0 0 127 0" result="hardAlpha"/>
<feOffset dy="4"/>
<feGaussianBlur stdDeviation="7.5"/>
<feComposite in2="hardAlpha" operator="out"/>
<feColorMatrix type="matrix" values="0 0 0 0 0.466667 0 0 0 0 0.878431 0 0 0 0 0.584314 0 0 0 1 0"/>
<feBlend mode="normal" in2="BackgroundImageFix" result="effect1_dropShadow_0_59"/>
<feBlend mode="normal" in="SourceGraphic" in2="effect1_dropShadow_0_59" result="shape"/>
</filter>
</defs>
</svg>
